<?xml version="1.0" encoding="utf-8"?>
<!-- Generator: Adobe Illustrator 24.0.3, SVG Export Plug-In . SVG Version: 6.00 Build 0)  -->
<svg version="1.1" id="Layer_1" xmlns="http://www.w3.org/2000/svg" xmlns:xlink="http://www.w3.org/1999/xlink" x="0px" y="0px"
	 viewBox="0 0 379.126 175.881" enable-background="new 0 0 379.126 175.881" xml:space="preserve">
<g>
	<path fill="#120D0A" d="M25.844,116.777c0,0-10.253-2.659-24.53,25.475s42.762,33.628,42.762,33.628H149.37
		c0,0,65.367,0.35,39.332-30.409s-24.32-36.673-29.849-32.509C153.359,117.162,25.844,116.777,25.844,116.777z"/>
	<path fill="#4C3915" d="M93.276,103.41c-16.027,0-29.009-2.135-29.009-25.23s19.106-41.852,29.009-41.852
		c10.988,0,29.009,18.721,29.009,41.852C122.285,101.275,109.302,103.41,93.276,103.41z"/>
	<path fill="#5E461B" d="M75.184,38.182c0,0,9.063,10.113,5.529,20.506c-3.534,10.428,25.405,2.17,25.405,2.17
		s-5.564-20.191,4.304-21.101c9.868-0.91-17.077-9.623-17.077-9.623L75.184,38.182z"/>
	<g>
		<g>
			<path fill="#120D0A" d="M154.654,42.906c1.26-1.54,2.415-3.184,3.464-4.934c0.595-0.98,0.945-2.1,1.05-3.219
				c1.505-14.872,7.279-28.205-1.575-32.124c-8.433-3.569-3.954-5.459-22.466,7.594c-6.369,5.424-15.152,7.873-23.76,6.229
				c-5.634-1.12-11.723-1.855-18.126-2.03c-6.404,0.175-12.493,0.945-18.126,2.03c-8.573,1.68-17.392-0.77-23.725-6.229
				c-3.499-2.974-7.349-4.759-10.918-5.984c-11.373-3.849-9.868,1.19-12.003,5.669c-3.709,7.873-2.31,12.633-1.12,24.775
				c0.105,1.19,0.49,2.345,1.085,3.359c1.05,1.75,2.205,3.359,3.464,4.899c2.275,2.764,3.149,6.229,2.345,9.623
				c-4.584,19.106-8.293,41.677-10.813,66.697c20.226,14.102,44.406,22.851,69.846,25.3c25.44-2.485,49.62-11.233,69.846-25.3
				c-2.52-25.02-6.229-47.591-10.813-66.697C151.504,49.17,152.379,45.671,154.654,42.906z M93.276,101.625
				c-15.187,0-27.54-1.995-27.54-23.935s18.126-39.717,27.54-39.717c10.428,0,27.54,17.777,27.54,39.717
				S108.463,101.625,93.276,101.625z"/>
			<path fill="#010101" d="M93.276,55.714c-8.153,0-14.767,0.035-14.767,8.188s14.767,14.767,14.767,14.767
				s14.767-6.614,14.767-14.767S101.429,55.714,93.276,55.714z"/>
		</g>
	</g>
	<circle fill="#402A11" stroke="#010101" stroke-width="1.0498" stroke-miterlimit="10" cx="69.2" cy="42.906" r="4.374"/>
	<circle fill="#402A11" stroke="#010101" stroke-width="1.0498" stroke-miterlimit="10" cx="117.351" cy="42.906" r="4.374"/>
	<path opacity="0.72" fill="#B7B9BA" enable-background="new    " d="M92.261,59.738c0,0,7.559-0.385,8.643,0.525
		c1.05,0.945,3.044,6.439,1.26,8.363c-1.785,1.925,0.735,0,0.735,0s1.855-6.194-0.245-8.293
		C100.484,58.198,92.261,59.738,92.261,59.738z"/>
	<path opacity="0.72" fill="#B7B9BA" enable-background="new    " d="M116.546,40.002c0,0,2.694,0.175,3.044,0.63
		c0.35,0.455,0.735,2.834,0,3.569c-0.735,0.735,0.245,0.035,0.245,0.035s1.015-2.52,0.35-3.499
		C119.555,39.757,116.546,40.002,116.546,40.002z"/>
	<path opacity="0.72" fill="#B7B9BA" enable-background="new    " d="M68.605,40.002c0,0,2.694,0.175,3.044,0.63
		c0.315,0.455,0.735,2.834,0,3.569c-0.735,0.735,0.245,0.035,0.245,0.035s1.015-2.52,0.35-3.499
		C71.615,39.757,68.605,40.002,68.605,40.002z"/>
	<polyline fill="#120D0A" stroke="#24170D" stroke-width="2.0996" stroke-miterlimit="10" points="46.945,131.999 61.747,146.906 
		64.091,139.733 79.558,155.2 81.378,144.107 96.74,155.69 105.768,143.197 113.222,154.815 123.405,137.808 133.063,145.611 
		139.537,131.999 	"/>
	<path fill="none" stroke="#251A0E" stroke-width="1.7497" stroke-miterlimit="10" d="M141.146,28.314c0,0,0.91-18.826,8.013-16.937
		"/>
	<path fill="none" stroke="#251A0E" stroke-width="1.7497" stroke-miterlimit="10" d="M48.379,30.204c0,0-0.91-18.826-8.013-16.937"
		/>
	<polyline fill="#120D0A" stroke="#24170D" stroke-width="2.0996" stroke-miterlimit="10" points="114.131,23.59 108.148,34.333 
		107.028,29.119 100.729,40.282 99.749,32.269 93.451,40.597 89.426,31.499 86.452,39.897 81.833,27.544 77.879,33.178 
		74.904,23.31 	"/>
</g>
<g>
	<path fill="#120D0A" d="M210.141,116.777c0,0-10.253-2.659-24.53,25.475s42.762,33.628,42.762,33.628h105.295
		c0,0,65.367,0.35,39.332-30.409c-26.035-30.759-24.32-36.673-29.849-32.509C337.657,117.162,210.141,116.777,210.141,116.777z"/>
	<path fill="#4C3915" d="M277.573,103.41c-16.027,0-29.009-2.135-29.009-25.23s19.106-41.852,29.009-41.852
		c10.988,0,29.009,18.721,29.009,41.852C306.583,101.275,293.6,103.41,277.573,103.41z"/>
	<path fill="#5E461B" d="M259.482,38.182c0,0,9.063,10.113,5.529,20.506c-3.534,10.428,25.405,2.17,25.405,2.17
		s-5.564-20.191,4.304-21.101c9.868-0.91-17.077-9.623-17.077-9.623L259.482,38.182z"/>
	<g>
		<g>
			<path fill="#120D0A" d="M338.951,42.906c1.26-1.54,2.415-3.184,3.464-4.934c0.595-0.98,0.945-2.1,1.05-3.219
				c1.505-14.872,7.279-28.205-1.575-32.124c-8.433-3.569-3.954-5.459-22.466,7.594c-6.369,5.424-15.152,7.873-23.76,6.229
				c-5.634-1.12-11.723-1.855-18.126-2.03c-6.404,0.175-12.493,0.945-18.126,2.03c-8.573,1.68-17.392-0.77-23.725-6.229
				c-3.499-2.974-7.349-4.759-10.918-5.984c-11.373-3.849-9.868,1.19-12.003,5.669c-3.709,7.873-2.31,12.633-1.12,24.775
				c0.105,1.19,0.49,2.345,1.085,3.359c1.05,1.75,2.205,3.359,3.464,4.899c2.275,2.764,3.149,6.229,2.345,9.623
				c-4.584,19.106-8.293,41.677-10.813,66.697c20.226,14.102,44.406,22.851,69.846,25.3c25.44-2.485,49.62-11.233,69.846-25.3
				c-2.52-25.02-6.229-47.591-10.813-66.697C335.802,49.17,336.677,45.671,338.951,42.906z M277.573,101.625
				c-15.187,0-27.54-1.995-27.54-23.935s18.126-39.717,27.54-39.717c10.428,0,27.54,17.777,27.54,39.717
				S292.76,101.625,277.573,101.625z"/>
			<path fill="#010101" d="M277.573,55.714c-8.153,0-14.767,0.035-14.767,8.188s14.767,14.767,14.767,14.767
				s14.767-6.614,14.767-14.767S285.727,55.714,277.573,55.714z"/>
		</g>
	</g>
	<circle fill="#402A11" stroke="#010101" stroke-width="1.0498" stroke-miterlimit="10" cx="253.498" cy="42.906" r="4.374"/>
	<circle fill="#402A11" stroke="#010101" stroke-width="1.0498" stroke-miterlimit="10" cx="301.649" cy="42.906" r="4.374"/>
	<path opacity="0.72" fill="#B7B9BA" enable-background="new    " d="M276.559,59.738c0,0,7.559-0.385,8.643,0.525
		c1.05,0.945,3.044,6.439,1.26,8.363c-1.785,1.925,0.735,0,0.735,0s1.855-6.194-0.245-8.293
		C284.782,58.198,276.559,59.738,276.559,59.738z"/>
	<path opacity="0.72" fill="#B7B9BA" enable-background="new    " d="M300.844,40.002c0,0,2.694,0.175,3.044,0.63
		c0.35,0.455,0.735,2.834,0,3.569c-0.735,0.735,0.245,0.035,0.245,0.035s1.015-2.52,0.35-3.499
		C303.853,39.757,300.844,40.002,300.844,40.002z"/>
	<path opacity="0.72" fill="#B7B9BA" enable-background="new    " d="M252.903,40.002c0,0,2.694,0.175,3.044,0.63
		c0.315,0.455,0.735,2.834,0,3.569c-0.735,0.735,0.245,0.035,0.245,0.035s1.015-2.52,0.35-3.499
		C255.913,39.757,252.903,40.002,252.903,40.002z"/>
	<polyline fill="#120D0A" stroke="#24170D" stroke-width="2.0996" stroke-miterlimit="10" points="231.242,131.999 246.045,146.906 
		248.389,139.733 263.856,155.2 265.676,144.107 281.038,155.69 290.066,143.197 297.52,154.815 307.703,137.808 317.361,145.611 
		323.834,131.999 	"/>
	<path fill="none" stroke="#251A0E" stroke-width="1.7497" stroke-miterlimit="10" d="M325.444,28.314c0,0,0.91-18.826,8.013-16.937
		"/>
	<path fill="none" stroke="#251A0E" stroke-width="1.7497" stroke-miterlimit="10" d="M232.677,30.204c0,0-0.91-18.826-8.013-16.937
		"/>
	<polyline fill="#120D0A" stroke="#24170D" stroke-width="2.0996" stroke-miterlimit="10" points="298.429,23.59 292.445,34.333 
		291.326,29.119 285.027,40.282 284.047,32.269 277.748,40.597 273.724,31.499 270.75,39.897 266.131,27.544 262.176,33.178 
		259.202,23.31 	"/>
</g>
</svg>
