<?xml version="1.0" encoding="utf-8"?>
<!-- Generator: Adobe Illustrator 22.1.0, SVG Export Plug-In . SVG Version: 6.00 Build 0)  -->
<svg version="1.1" id="Layer_1" xmlns="http://www.w3.org/2000/svg" xmlns:xlink="http://www.w3.org/1999/xlink" x="0px" y="0px"
	 viewBox="0 0 500 500" style="enable-background:new 0 0 500 500;" xml:space="preserve">
<style type="text/css">
	.st0{opacity:0.5;}
	.st1{fill:#1A1A1A;stroke:#FFFFFF;stroke-width:4.8998;stroke-miterlimit:10;}
	.st2{fill:#1A1A1A;}
	.st3{opacity:0.5;fill:#1A1A1A;stroke:#FFFFFF;stroke-width:2;stroke-miterlimit:10;}
</style>
<g class="st0">
	<path class="st1" d="M487.2,244.7c2.7-3.1,3-7.6,0.8-11c-2.2-3.4-6.5-5-10.5-3.8c-0.1,0-14.2,4.3-32.8,4.3
		c-21.9,0-36.6-1.1-58.4-19c-20.3-16.7-48.8-26.2-78.3-26.2c-24,0-44.2,6.3-52.9,16.5c-2,2.3-3.8,4.7-5.5,7c-1.7-2.3-3.5-4.6-5.5-7
		c-8.7-10.2-28.9-16.5-52.9-16.5c-29.5,0-58,9.6-78.3,26.2c-15.4,12.6-35,19-58.4,19c-18.6,0-32.7-4.2-32.8-4.3
		c-3.9-1.2-8.2,0.3-10.5,3.7c-2.3,3.4-1.9,7.9,0.8,11"/>
</g>
<g>
	<path class="st2" d="M492.3,233.7c-2.3-3.5-6.6-5.1-10.6-3.9c-0.1,0-14.4,4.4-33.4,4.4c-23.8,0-43.8-6.6-59.4-19.5
		c-20.6-17.1-49.6-26.9-79.6-26.9c-24.3,0-44.9,6.5-53.7,16.9c-2,2.4-3.9,4.8-5.6,7.2c-1.7-2.4-3.5-4.8-5.6-7.2
		c-8.8-10.4-29.4-16.9-53.7-16.9c-29.9,0-59,9.8-79.6,26.9c-15.6,12.9-35.6,19.5-59.4,19.5c-18.9,0-33.2-4.3-33.3-4.4
		c-4-1.3-8.4,0.3-10.7,3.8c-2.3,3.5-2,8.1,0.8,11.3c0.9,1,22.5,25.2,63.7,25.7c-1.2,2.8-3.2,5.4-6.6,6.4c-9.2,2.5-9,9.2-8.8,11.2
		c0.8,5.8,5.2,8.7,13.3,8.7c6.6,0,29-1.9,47.8-9.4c-0.1,0.1-0.3,0.3-0.4,0.4c-5.7,5-4.6,10.1-3.8,12.1c1.2,3.1,4.4,6.5,9.9,6.5
		c6.2,0,28.2-7.7,45.7-16.9c-0.6,1.5-1.2,2.6-1.8,3.1c-3.7,2.4-5.3,7-3.7,11.2c1.4,3.7,4.9,6.1,8.8,6.1c0.5,0,1,0,1.6-0.1
		c6.2-1,53.1-9.6,76-34.6c22.9,24.9,69.8,33.5,76,34.6c0.5,0.1,1.1,0.1,1.6,0.1c0.2,0,0.4,0,0.6,0c1.3-0.1,2.5-0.4,3.7-1
		c2-1,3.7-2.8,4.6-5c1-2.7,0.8-5.5-0.5-7.8c-0.8-1.5-2-2.7-3.4-3.6c-0.5-0.6-1.1-1.6-1.7-3c17.5,9.2,39.5,16.9,45.7,16.9
		c5.5,0,8.7-3.4,9.9-6.5c0.7-2,1.8-7.2-3.9-12.1c-0.1-0.1-0.3-0.3-0.4-0.4c18.8,7.4,41.2,9.4,47.8,9.4c8,0,12.5-2.9,13.3-8.7
		c0.3-2,0.4-8.7-8.8-11.2c-3.5-1-5.5-3.6-6.7-6.4c41.2-0.5,62.8-24.7,63.7-25.7C494.2,241.8,494.5,237.2,492.3,233.7z"/>
</g>
<path class="st3" d="M138.9,266.9c7.2-4.1,45.5-30.2,46.4-33.8"/>
<path class="st3" d="M97.9,255.9c10.1-3.9,64.2-30,65.7-34.1"/>
<path class="st3" d="M183.4,268c4.9-4.1,30.2-29.4,30.4-32.3"/>
<path class="st3" d="M359.9,266.9c-7.2-4.1-45.5-30.2-46.4-33.8"/>
<path class="st3" d="M400.9,255.9c-10.1-3.9-64.2-30-65.7-34.1"/>
<path class="st3" d="M315.4,268c-4.9-4.1-30.2-29.4-30.4-32.3"/>
</svg>
