<?xml version="1.0" encoding="utf-8"?>
<!-- Generator: Adobe Illustrator 22.1.0, SVG Export Plug-In . SVG Version: 6.00 Build 0)  -->
<svg version="1.1" id="Layer_1" xmlns="http://www.w3.org/2000/svg" xmlns:xlink="http://www.w3.org/1999/xlink" x="0px" y="0px"
	 viewBox="0 0 500 500" style="enable-background:new 0 0 500 500;" xml:space="preserve">
<style type="text/css">
	.st0{fill:#FFCD34;}
</style>
<g>
	<path class="st0" d="M322.9,123c-31.4,0-58.5,18.1-71.5,44.4c-13.1-26.3-40.2-44.4-71.5-44.4c-44.1,0-79.8,35.7-79.8,79.8
		c0,105.3,149.7,163,149.7,163s153-58.4,153-163C402.8,158.8,367,123,322.9,123L322.9,123z M302.3,88.7c-7.2-1.3-12-8.3-10.6-15.5
		l6.3-33.8c1.3-7.2,8.3-12,15.5-10.6c7.2,1.3,12,8.3,10.6,15.5l-6.3,33.8C316.4,85.3,309.5,90,302.3,88.7z M434.1,188.4
		c0.3-7.3,6.4-13.1,13.7-12.8l34.3,1.2c7.3,0.3,13.1,6.4,12.8,13.7c-0.3,7.3-6.4,13.1-13.7,12.8l-34.3-1.2
		C439.6,201.8,433.9,195.7,434.1,188.4z M114.3,432.1c-1.8,0-3.6-0.3-5.3-1.1c-6.7-2.9-9.8-10.7-6.9-17.5
		c6.2-14.3,16.1-25.5,25.7-36.4c3.1-3.5,6.1-6.9,9-10.4c4.6-5.7,13-6.5,18.7-1.9c5.7,4.6,6.5,13,1.9,18.7c-3.1,3.8-6.4,7.5-9.7,11.2
		c-8.6,9.7-16.7,18.9-21.2,29.3C124.3,429.1,119.5,432.1,114.3,432.1z M465.8,321.8l-43.5-17.4c-6.8-2.7-10.1-10.5-7.4-17.3
		c2.7-6.8,10.5-10.1,17.3-7.4l43.5,17.4c6.8,2.7,10.1,10.4,7.4,17.3C480.3,321.2,472.6,324.5,465.8,321.8z M237.6,457.8l1-46.8
		c0.2-7.3,6.2-13.1,13.6-13c7.3,0.2,13.1,6.2,13,13.6l-1,46.8c-0.2,7.3-6.2,13.1-13.6,13C243.3,471.2,237.4,465.2,237.6,457.8z
		 M389.8,114.3c-3.2,0-6.4-1.1-9-3.5c-5.4-4.9-5.8-13.3-0.8-18.7c10-11,22.6-20.3,39.4-29.3c6.5-3.5,14.5-1,18,5.5
		c3.5,6.5,1,14.5-5.5,18c-14.1,7.6-24.4,15.1-32.4,23.8C397,112.9,393.4,114.3,389.8,114.3z M10.6,226.5c-2.6-1.8-4.6-4.6-5.3-8
		c-1.6-7.2,3-14.2,10.1-15.8c14.5-3.2,30.1-3.6,49.1-1.2c7.3,0.9,12.4,7.5,11.5,14.8c-0.9,7.3-7.5,12.4-14.8,11.5
		c-15.9-2-28.7-1.7-40.1,0.8C17.3,229.5,13.6,228.6,10.6,226.5z M345.2,366.8c-0.3-3.2,0.5-6.5,2.5-9.3c4.3-5.9,12.6-7.2,18.5-2.8
		c12,8.8,22.6,20.3,33.3,36.1c4.1,6.1,2.6,14.3-3.5,18.4c-6.1,4.1-14.3,2.6-18.4-3.5c-9-13.2-17.6-22.7-27.1-29.6
		C347.4,373.8,345.5,370.4,345.2,366.8z M31.5,339.9c-3.1-0.7-6-2.6-7.9-5.4c-4.2-6-2.6-14.3,3.4-18.5c12.2-8.4,26.5-14.7,45-19.6
		c7.1-1.9,14.4,2.3,16.3,9.4c1.9,7.1-2.3,14.4-9.4,16.3c-15.5,4.2-27.2,9.2-36.9,15.9C38.8,340.1,35,340.7,31.5,339.9z M96.5,125.2
		c-2.8,0-5.7-0.9-8.1-2.8c-2-1.6-5.5-3.9-9.2-6.4c-9.4-6.3-21.1-14.1-27.9-21.8c-4.8-5.5-4.3-13.9,1.2-18.7
		c5.5-4.8,13.9-4.3,18.7,1.2c4.4,5,15,12.1,22.7,17.2c4.3,2.9,8,5.3,10.7,7.5c5.8,4.5,6.9,12.8,2.4,18.6
		C104.4,123.4,100.5,125.2,96.5,125.2z M204.1,91c-4.8,0-9.4-2.6-11.8-7.2c-2.2-4.2-3.9-8.2-5.5-12.2c-3-7-5.5-13-9.8-18
		c-4.8-5.5-4.3-13.9,1.3-18.7c5.5-4.8,13.9-4.3,18.7,1.3c7.1,8.1,10.9,17.1,14.3,25.1c1.5,3.6,3,7,4.7,10.3
		c3.4,6.5,0.8,14.5-5.7,17.9C208.2,90.5,206.1,91,204.1,91z"/>
</g>
</svg>
