<?xml version="1.0" encoding="utf-8"?>
<!-- Generator: Adobe Illustrator 24.0.3, SVG Export Plug-In . SVG Version: 6.00 Build 0)  -->
<svg version="1.1" id="Layer_1" xmlns="http://www.w3.org/2000/svg" xmlns:xlink="http://www.w3.org/1999/xlink" x="0px" y="0px"
	 viewBox="0 0 379.126 91.342" enable-background="new 0 0 379.126 91.342" xml:space="preserve">
<g>
	<path fill="#FCD0C1" d="M323.37,33.148c-0.04-0.006-0.066,0.002-0.106-0.005c-0.001,0.001-0.001,0.002-0.002,0.004
		c0.034,0.016,0.053,0.027,0.086,0.043C323.355,33.176,323.363,33.162,323.37,33.148z"/>
	<path fill="#FCD0C1" d="M340.62,28.392c-0.003-0.027,0.003-0.055-0.001-0.082c-0.079-0.047-0.158-0.093-0.239-0.138
		c-0.017,0.013-0.033,0.029-0.05,0.042C340.428,28.272,340.525,28.332,340.62,28.392z"/>
	<path fill="#FCD0C1" d="M371.114,85.749l-0.261,0.681c1.902-2.123,4.065-4.025,6.448-5.587c0.881-0.581,1.882-1.222,1.822-2.443
		c-0.04-0.761-0.501-1.442-1.182-1.822c-1.482-0.821-3.084-0.36-4.586,0.1c-1.282,0.401-2.563,0.781-3.845,1.182
		c-0.941,0.28-1.902,0.581-2.884,0.52c-0.981-0.06-2.003-0.52-2.463-1.402c-0.281-0.541-0.301-1.161-0.281-1.762
		c0.08-1.883,0.721-3.745,1.782-5.287c2.243-3.244,6.308-5.127,7.81-8.791c1.001-2.483,0.601-5.287,0.18-7.93
		c-0.28-1.762-0.561-3.524-0.861-5.287c-0.04-0.22-0.08-0.441-0.22-0.601c-0.14-0.16-0.36-0.2-0.561-0.241
		c-0.26-0.04-0.52-0.06-0.761-0.04c-1.862,0.14-2.863,1.602-3.865,2.944c-2.042,2.723-4.445,5.166-7.109,7.269
		c-0.901,0.721-1.922,1.402-3.064,1.442c-1.863,0.04-3.284-1.662-4.206-3.284c-1.089-1.906-1.929-4.057-1.648-6.216
		c2.354-2.468,2.543-6.305,2.089-9.705c-0.581-4.285-1.962-8.451-4.025-12.236c-0.581-1.061-1.222-2.102-2.003-3.024
		c-0.661-0.781-1.442-1.482-2.383-1.882c-0.501-0.2-1.021-0.34-1.542-0.421c-1.842-0.28-3.725-0.02-5.587,0.261
		c-4.345,0.661-8.671,1.422-12.816,2.863c-3.503,1.223-6.831,3.014-9.68,5.39c-0.028-0.322-0.224-0.627-0.593-0.724
		c-0.36-0.1-0.761-0.1-1.121,0.02c-0.921,0.32-1.542,1.161-1.962,2.023c-1.582,3.304-0.901,7.249,0.32,10.693
		c1.222,3.444,2.964,6.769,3.464,10.393c0.261,1.922-0.661,3.725-1.562,5.467c-0.861,1.642-1.722,3.284-2.563,4.906
		c-0.16,0.28-0.3,0.581-0.541,0.801c-0.32,0.301-0.761,0.441-1.202,0.541c-2.543,0.541-5.166-0.22-7.77-0.441
		c-2.683-0.24-5.827,0.36-7.089,2.804c-0.18,0.34-0.3,0.741-0.28,1.121c0.04,1.562,1.742,2.183,3.144,2.623
		c3.124,1.021,6.048,2.643,8.531,4.766c0.541,0.461,0.461,1.302,0.361,2.043c-0.1,0.681-0.421,1.321-0.921,1.802
		c-0.841,0.821-1.782,1.702-2.944,1.962c-0.981,0.22-2.002,0-3.024,0.04c-1.862,0.06-3.564,1.001-5.186,1.902
		c-0.681,0.38-1.422,0.821-1.402,1.742c0,0.461,0.24,0.901,0.561,1.222c0.741,0.741,1.782,0.881,2.743,1.121
		c0.901,0.22,1.802,0.541,2.483,1.161c0.681,0.621,1.082,1.622,0.801,2.483l21.118,0.286c-0.406-2.322-0.692-4.723-0.692-7.255
		c0-14.842,7.459-26.874,16.661-26.874c9.202,0,16.661,12.032,16.661,26.874c0,2.69-0.319,5.236-0.775,7.686l17.977,0.243
		C369.972,89.874,370.152,87.611,371.114,85.749z M341.096,24.972c0-0.31,0.251-0.561,0.561-0.561c0.31,0,0.561,0.251,0.561,0.561
		c0,0.31-0.251,0.561-0.561,0.561C341.347,25.533,341.096,25.282,341.096,24.972z M318.447,30.88c0-0.31,0.251-0.561,0.561-0.561
		c0.31,0,0.561,0.251,0.561,0.561s-0.251,0.561-0.561,0.561C318.698,31.441,318.447,31.189,318.447,30.88z M322.838,40.338
		c-0.052,0.042-0.114,0.071-0.166,0.113c0.049-0.053,0.098-0.106,0.148-0.158c-0.066-0.189-0.167-0.358-0.22-0.554
		c-0.052-0.155-0.145-0.29-0.187-0.449c-0.555-2.088-0.176-4.224,0.849-6.144c-0.003-0.002-0.005-0.003-0.008-0.004
		c0.004,0.001,0.006,0,0.01,0.001c0.446-0.835,1.013-1.623,1.701-2.346c1.519-1.708,3.586-3.063,6.069-3.735
		c2.654-0.718,5.288-0.517,7.562,0.33c0.63,0.212,1.224,0.47,1.785,0.78c0.082-0.062,0.152-0.134,0.234-0.196
		c0.016,0.11-0.009,0.223,0.004,0.334c1.969,1.157,3.461,2.873,4.041,5.053c0.082,0.307,0.085,0.617,0.129,0.926
		c1.051,5.171-2.629,10.508-8.525,12.104C330.408,47.977,324.584,45.269,322.838,40.338z"/>
	<path fill="#FFFFFF" d="M336.75,57.073c-9.202,0-16.661,12.032-16.661,26.874c0,2.531,0.287,4.933,0.692,7.255
		c0.04,0.228,0.086,0.45,0.13,0.675h31.678c0.016-0.081,0.032-0.162,0.047-0.243c0.456-2.451,0.775-4.996,0.775-7.686
		C353.411,69.105,345.952,57.073,336.75,57.073z"/>
	<path fill="#010101" d="M344.789,34.289c0.29,2.052-0.224,4.108-1.389,5.923c0.015,0.013,0.023,0.027,0.038,0.039
		c-0.023,0.003-0.042,0.005-0.066,0.007c-1.127,1.736-2.813,3.23-4.921,4.253c0,0.002,0,0.003,0.001,0.005
		c-0.001-0.001-0.003-0.002-0.004-0.003c-0.779,0.378-1.598,0.709-2.479,0.944c-1.021,0.241-2.082,0.38-3.104,0.421
		c0.2-1.382,0.481-2.102,0.481-3.484c1.981,0.6,3.522,0.881,5.102,2.12c0.001-0.001,0.002-0.002,0.004-0.002
		c-0.239-1.498-0.2-2.32-0.44-3.82c1.899,0,3.47-0.216,5.361-0.433c0.01-0.015,0.017-0.031,0.027-0.047
		c-0.851-0.728-1.315-1.438-1.984-2.324c1.382-0.38,1.902-0.861,3.284-1.242c-0.04-0.481,0.24-0.601-0.26-0.721
		c-0.941-0.22-1.903-0.421-2.844-0.641c0.941-1.282,1.061-2.363,2.003-3.645c-1.262,0.441-1.662,0.681-2.924,1.121
		c0.165-1.463,0.114-2.922-0.055-4.37c-0.096-0.06-0.192-0.12-0.29-0.177c-1.092,0.835-2.148,1.707-3.139,2.625
		c-0.79-1.62-1.661-2.621-2.742-4.07c-0.025,0.001-0.049,0.001-0.073,0.001c-0.857,1.273-1.39,2.27-1.35,3.769
		c-1.983-0.401-3.444-0.901-5.086-2.003c0.241,1.582,0.04,2.884,0.3,4.466c-1.877,0.195-3.045,0.414-4.87,0.145
		c-0.007,0.014-0.015,0.027-0.022,0.041c1.612,0.772,2.526,1.293,4.171,2.076c-1.57,1.667-3.122,3.352-4.691,5.02
		c0.006,0.016,0.013,0.031,0.019,0.047c1.125-0.898,2.415-1.627,3.79-2.123c-0.481,1.702-0.721,3.444-0.721,5.187
		c0.841-1.042,1.843-1.942,2.964-2.703c0.414,1.557,0.49,3.212,0.225,4.828c0.007,0.002,0.015,0.005,0.022,0.007
		c0.403-1.416,1.069-2.774,1.936-3.994c0.36,0.841,2.143,3.925,1.222,4.385c-0.65,0.332-2.055-0.027-3.157-0.391
		c-0.007,0.024-0.02,0.047-0.027,0.071c0.005-0.026,0.001-0.052,0.005-0.078c-0.485-0.161-0.924-0.319-1.186-0.423
		c-2.297-0.898-4.132-2.601-5.072-4.765c-0.003,0.002-0.006,0.004-0.009,0.006c1.745,4.931,7.569,7.639,13.426,6.054
		C342.16,44.797,345.84,39.46,344.789,34.289z"/>
	<path fill="#010101" d="M331.103,27.195c1.106-0.295,2.199-0.402,3.273-0.424c0.013-0.02,0.018-0.036,0.032-0.056
		c0.015,0.02,0.026,0.035,0.042,0.055c1.466-0.023,2.862,0.191,4.146,0.622c-2.274-0.847-4.908-1.048-7.562-0.33
		c-2.484,0.672-4.55,2.027-6.069,3.735C326.516,29.166,328.608,27.862,331.103,27.195z"/>
	<path fill="#010101" d="M322.6,39.739c0.053,0.196,0.155,0.365,0.22,0.554c0.003-0.003,0.005-0.005,0.007-0.008
		C322.75,40.104,322.664,39.928,322.6,39.739z"/>
	<polygon fill="#FFFFFF" points="323.253,33.143 323.262,33.147 323.264,33.143 	"/>
	<path fill="#FFFFFF" d="M340.615,27.976c-0.082,0.062-0.153,0.134-0.234,0.196c0.08,0.045,0.159,0.091,0.239,0.138
		C340.606,28.199,340.631,28.087,340.615,27.976z"/>
	<path fill="#FFFFFF" d="M327.519,35.265c-1.645-0.783-2.559-1.304-4.171-2.076c-0.033-0.016-0.052-0.027-0.086-0.043
		c-1.025,1.92-1.405,4.055-0.849,6.144c0.043,0.159,0.135,0.294,0.187,0.449c0.064,0.188,0.15,0.365,0.228,0.546
		C324.397,38.618,325.949,36.932,327.519,35.265z"/>
	<path fill="#FFFFFF" d="M340.675,32.762c1.262-0.441,1.662-0.681,2.924-1.121c-0.941,1.282-1.062,2.363-2.003,3.645
		c0.941,0.22,1.902,0.421,2.844,0.641c0.5,0.12,0.22,0.24,0.26,0.721c-1.382,0.38-1.902,0.861-3.284,1.242
		c0.669,0.885,1.133,1.596,1.984,2.324c1.165-1.815,1.678-3.871,1.389-5.923c-0.044-0.309-0.047-0.619-0.129-0.926
		c-0.58-2.18-2.072-3.896-4.041-5.053c0.004,0.027-0.002,0.055,0.001,0.082C340.79,29.84,340.84,31.299,340.675,32.762z"/>
	<path fill="#FFFFFF" d="M334.449,26.77c1.08,1.449,1.952,2.45,2.742,4.07c0.992-0.918,2.047-1.79,3.139-2.625
		c0.017-0.013,0.033-0.029,0.05-0.042c-0.561-0.31-1.155-0.568-1.785-0.78C337.312,26.961,335.915,26.747,334.449,26.77z"/>
	<path fill="#FFFFFF" d="M334.376,26.771c0.025,0,0.049,0,0.073-0.001c-0.015-0.02-0.027-0.035-0.042-0.055
		C334.394,26.735,334.389,26.751,334.376,26.771z"/>
	<path fill="#FFFFFF" d="M338.452,44.512c2.108-1.023,3.794-2.517,4.921-4.253c-1.891,0.218-3.462,0.433-5.361,0.433
		C338.252,42.192,338.213,43.014,338.452,44.512z"/>
	<polygon fill="#FFFFFF" points="338.452,44.517 338.452,44.512 338.448,44.514 	"/>
	<path fill="#FFFFFF" d="M332.865,45.879c1.021-0.04,2.083-0.18,3.104-0.421c0.881-0.235,1.7-0.566,2.479-0.944
		c-1.581-1.239-3.122-1.52-5.102-2.12C333.346,43.776,333.066,44.497,332.865,45.879z"/>
	<path fill="#FFFFFF" d="M343.439,40.252c-0.016-0.013-0.023-0.027-0.038-0.039c-0.01,0.016-0.017,0.032-0.027,0.047
		C343.396,40.257,343.415,40.254,343.439,40.252z"/>
	<path fill="#FFFFFF" d="M329.127,45.528c-0.007-0.002-0.015-0.005-0.022-0.007c-0.004,0.026,0,0.052-0.005,0.078
		C329.107,45.574,329.121,45.552,329.127,45.528z"/>
	<path fill="#FFFFFF" d="M327.919,45.098c0.263,0.104,0.701,0.262,1.186,0.423c0.265-1.617,0.189-3.271-0.225-4.828
		c-1.121,0.761-2.123,1.662-2.964,2.703c0-1.742,0.241-3.484,0.721-5.187c-1.375,0.497-2.666,1.225-3.79,2.123
		C323.787,42.497,325.622,44.2,327.919,45.098z"/>
	<path fill="#FFFFFF" d="M332.285,45.919c0.921-0.461-0.861-3.545-1.222-4.385c-0.866,1.221-1.533,2.579-1.936,3.994
		C330.23,45.892,331.635,46.251,332.285,45.919z"/>
	<path fill="#FFFFFF" d="M328.239,33.003c-0.26-1.582-0.06-2.884-0.3-4.466c1.642,1.101,3.104,1.602,5.086,2.003
		c-0.039-1.499,0.493-2.496,1.35-3.769c-1.074,0.023-2.166,0.129-3.273,0.424c-2.496,0.667-4.587,1.971-6.139,3.602
		c-0.688,0.723-1.255,1.511-1.701,2.346c0.041,0.006,0.066-0.001,0.106,0.005C325.194,33.417,326.362,33.198,328.239,33.003z"/>
	<path fill="#FFFFFF" d="M322.828,40.286c-0.003,0.003-0.005,0.005-0.007,0.008c-0.049,0.053-0.098,0.106-0.148,0.158
		c0.051-0.042,0.114-0.072,0.166-0.113c0.003-0.002,0.006-0.004,0.009-0.006C322.84,40.317,322.834,40.301,322.828,40.286z"/>
	<path fill="#010101" d="M319.569,30.88c0-0.31-0.251-0.561-0.561-0.561c-0.31,0-0.561,0.251-0.561,0.561s0.251,0.561,0.561,0.561
		C319.318,31.441,319.569,31.189,319.569,30.88z"/>
	<path fill="#010101" d="M342.217,24.972c0-0.31-0.251-0.561-0.561-0.561c-0.31,0-0.561,0.251-0.561,0.561
		c0,0.31,0.251,0.561,0.561,0.561C341.966,25.533,342.217,25.282,342.217,24.972z"/>
	<path fill="#AE8234" d="M230.668,32.947c1.211,0.005,2.213,0.792,2.593,1.875c-0.274-1.03-1.159-1.833-2.298-1.914
		C230.859,32.901,230.769,32.942,230.668,32.947z"/>
	<path fill="#AE8234" d="M248.826,50.285c0.333-4.862-4.479-9.162-10.698-9.572c-6.245-0.409-11.568,3.174-11.901,8.062
		c-0.027,0.403,0.031,0.794,0.071,1.187c0.016,0.303,0.07,0.596,0.129,0.89c0.111,0.474,0.243,0.943,0.446,1.391
		c0.005,0.012,0.011,0.025,0.016,0.037c0.239,0.519,0.541,1.017,0.893,1.491c0.034,0.044,0.067,0.089,0.102,0.132
		c0.283,0.367,0.616,0.707,0.96,1.04c0.255,0.235,0.511,0.468,0.796,0.683c0.132,0.104,0.269,0.204,0.408,0.303
		c2.142,1.467,4.978,2.366,7.969,2.403c0.146-0.001,0.293,0,0.438-0.006c0.438-0.007,0.861-0.056,1.286-0.101
		C244.69,57.574,248.545,54.392,248.826,50.285z M235.313,45.28c-0.439-1.362,0.88-2.229,2.313-2.459
		c0.184-0.041,0.357-0.111,0.553-0.111c0.034,0,0.061,0.018,0.095,0.019c0.02,0,0.039-0.008,0.059-0.008
		c1.663,0,3.506,0.972,3.02,2.559c-0.486,1.663-1.356,3.02-3.02,3.02C236.644,48.3,235.876,47.046,235.313,45.28z"/>
	<path fill="#AE8234" d="M229.824,33.112c0.247-0.079,0.498-0.149,0.77-0.155C230.325,32.977,230.065,33.013,229.824,33.112z"/>
	<path fill="#AE8234" d="M250.987,89.567c0.227-0.68,0.375-1.405,0.531-2.126c0.078-0.358,0.196-0.694,0.255-1.061
		c0.179-1.104,0.277-2.244,0.277-3.414c0-4.679-1.514-8.913-3.951-12.021c-0.465-0.589-0.979-1.098-1.5-1.594
		c-0.196-0.187-0.367-0.41-0.57-0.585c-2.301-1.965-5.032-3.049-7.851-3.049c-0.885,0-1.745,0.127-2.583,0.324
		c-0.308,0.073-0.602,0.194-0.903,0.292c-0.513,0.166-1.02,0.348-1.507,0.582c-0.345,0.166-0.677,0.362-1.008,0.561
		c-0.412,0.248-0.814,0.517-1.203,0.812c-0.331,0.252-0.657,0.514-0.97,0.8c-0.348,0.318-0.674,0.668-0.996,1.023
		c-0.3,0.331-0.604,0.655-0.88,1.018c-0.283,0.372-0.53,0.783-0.786,1.185c-0.26,0.41-0.539,0.798-0.769,1.238
		c-0.151,0.288-0.259,0.61-0.396,0.909c-0.491,1.072-0.888,2.216-1.189,3.427c-0.402,1.616-0.681,3.299-0.681,5.078
		c0,1.161,0.099,2.293,0.274,3.39c0.102,0.632,0.285,1.225,0.442,1.83c0.112,0.436,0.188,0.89,0.326,1.31
		c0.246,0.741,0.565,1.431,0.889,2.117c0.04,0.086,0.073,0.178,0.114,0.262h23.645c0.184-0.376,0.347-0.769,0.508-1.163
		C250.664,90.328,250.853,89.967,250.987,89.567z"/>
	<path fill="#AE8234" d="M246.011,38.856c-0.761,0-1.449-0.309-1.952-0.803c0.433,0.568,1.075,0.968,1.85,1.023
		c0.942,0.067,1.76-0.403,2.264-1.119c-0.262,0.248-0.571,0.44-0.914,0.572C246.878,38.721,246.466,38.856,246.011,38.856z"/>
	<path fill="#876628" d="M226.227,49.338c-0.026,0.205,0,0.154,0.026,0.307c0,0.109,0.04,0.209,0.046,0.317
		c-0.041-0.393-0.099-0.784-0.071-1.187c0.333-4.888,5.656-8.471,11.901-8.062c6.219,0.41,11.03,4.709,10.698,9.572
		c-0.281,4.107-4.135,7.288-9.084,7.941c5.515-0.589,9.801-4.233,9.801-8.709c0-0.179,0-0.358-0.026-0.538
		c2.617,1.322,4.956,3.1,7.016,5.185c2.37-3.309,3.933-7.252,4.219-11.608c0.04-0.591-0.052-1.155-0.058-1.738
		c-0.472,0.032-0.941,0.08-1.427,0.048c-5.809-0.409-10.186-5.426-9.802-11.235c0.163-2.466,1.198-4.646,2.742-6.344
		c-3.483-2.772-7.798-4.568-12.57-4.891c-4.194-0.283-8.154,0.673-11.655,2.432c0.73,1.561,1.13,3.301,1.009,5.143
		c-0.41,5.81-5.426,10.211-11.235,9.802c-0.553-0.039-1.08-0.157-1.604-0.276c-0.325,1.299-0.583,2.629-0.673,4.012
		c-0.365,5.412,1.281,10.446,4.184,14.554C221.571,52.18,223.764,50.58,226.227,49.338z M233.261,34.822
		c0.101,0.289,0.184,0.588,0.184,0.912c0,0.45-0.131,0.859-0.32,1.236c-0.392,1.066-1.395,1.835-2.597,1.835
		c-1.541,0-2.79-1.249-2.79-2.79c0-0.451,0.131-0.86,0.321-1.236c0.296-0.805,0.945-1.406,1.766-1.667
		c0.24-0.099,0.501-0.135,0.77-0.155c0.021,0,0.039-0.012,0.06-0.012c0.005,0,0.008,0.003,0.013,0.003
		c0.101-0.005,0.191-0.046,0.294-0.039C232.102,32.989,232.986,33.792,233.261,34.822z M246.267,33.149
		c1.541,0,2.789,1.249,2.789,2.79c0,0.799-0.345,1.509-0.884,2.018c-0.504,0.717-1.322,1.187-2.264,1.119
		c-0.775-0.055-1.417-0.455-1.85-1.023c-0.515-0.506-0.838-1.207-0.838-1.986c0-1.189,0.751-2.187,1.798-2.589
		C245.399,33.284,245.811,33.149,246.267,33.149z"/>
	<path fill="#876628" d="M228.845,54.944c-0.344-0.333-0.677-0.673-0.96-1.04C228.175,54.268,228.489,54.615,228.845,54.944z"/>
	<path fill="#876628" d="M227.783,53.771c-0.351-0.474-0.654-0.971-0.893-1.491C227.126,52.803,227.421,53.299,227.783,53.771z"/>
	<path fill="#876628" d="M230.049,55.93c-0.138-0.1-0.276-0.199-0.408-0.303C229.777,55.729,229.907,55.833,230.049,55.93z"/>
	<path fill="#876628" d="M238.205,58.347c0.086,0,0.165-0.018,0.251-0.02c-0.145,0.006-0.291,0.005-0.438,0.006
		C238.081,58.334,238.141,58.347,238.205,58.347z"/>
	<path fill="#876628" d="M226.874,52.244c-0.203-0.448-0.335-0.917-0.446-1.391C226.523,51.333,226.674,51.794,226.874,52.244z"/>
	<path fill="#876628" d="M251.518,87.441c-0.156,0.721-0.304,1.446-0.531,2.126C251.214,88.886,251.362,88.162,251.518,87.441z"/>
	<path fill="#876628" d="M224.308,82.967c0,1.16,0.097,2.292,0.274,3.39C224.407,85.259,224.308,84.128,224.308,82.967z"/>
	<path fill="#876628" d="M246.03,68.767c0.203,0.175,0.374,0.398,0.57,0.585C246.404,69.165,246.232,68.939,246.03,68.767z"/>
	<path fill="#876628" d="M252.05,82.967c0,1.169-0.099,2.309-0.277,3.414C251.952,85.275,252.05,84.135,252.05,82.967z"/>
	<path fill="#876628" d="M227.343,72.314c0.256-0.402,0.502-0.813,0.786-1.185C227.845,71.501,227.598,71.911,227.343,72.314z"/>
	<path fill="#876628" d="M226.178,74.461c0.137-0.299,0.245-0.621,0.396-0.909C226.424,73.839,226.315,74.162,226.178,74.461z"/>
	<path fill="#876628" d="M229.008,70.111c0.322-0.356,0.648-0.705,0.996-1.023C229.656,69.406,229.331,69.754,229.008,70.111z"/>
	<path fill="#876628" d="M235.596,66.041c0.839-0.197,1.698-0.324,2.583-0.324C237.297,65.718,236.437,65.842,235.596,66.041z"/>
	<path fill="#876628" d="M233.185,66.915c0.487-0.234,0.995-0.416,1.507-0.582C234.18,66.5,233.675,66.679,233.185,66.915z"/>
	<path fill="#876628" d="M230.975,68.288c0.389-0.295,0.79-0.565,1.203-0.812C231.764,67.724,231.364,67.991,230.975,68.288z"/>
	<path fill="#876628" d="M249.999,91.877h0.021c0.182-0.373,0.328-0.773,0.487-1.163C250.346,91.108,250.183,91.5,249.999,91.877z"
		/>
	<path fill="#876628" d="M251.513,77.823c0.665-7.857-3.225-14.588-9.367-16.354c-2.963-0.829-6.161-0.357-9.098,1.202
		c4.24,1.076,8.786,2.431,13.602,4.147c0.896,1.612,1.382,3.02,1.587,4.274c-0.042-0.055-0.095-0.092-0.138-0.146
		c2.436,3.109,3.951,7.342,3.951,12.021c0-0.102,0-0.205,0-0.281c4.417,1.761,7.743,4.569,10.653,7.296
		c1.43-3.241,2.371-6.793,2.681-10.557C261.314,79.195,256.379,78.683,251.513,77.823z"/>
	<path fill="#876628" d="M231.891,62.397c0.486-0.715,1.062-1.445,1.809-2.208c11.036-0.724,20.37-0.174,27.846,0.792
		c-1.365-2.523-3.042-4.822-5.013-6.817c-2.06-2.085-4.399-3.863-7.016-5.185c0.026,0.179,0.026,0.358,0.026,0.538
		c0,4.476-4.286,8.12-9.801,8.709c-0.425,0.045-0.848,0.093-1.286,0.101c-0.085,0.002-0.165,0.02-0.251,0.02
		c-0.063,0-0.124-0.013-0.187-0.014c-2.991-0.037-5.826-0.936-7.969-2.403c-0.142-0.097-0.272-0.201-0.408-0.303
		c-0.285-0.215-0.541-0.448-0.796-0.683c-0.356-0.328-0.67-0.676-0.96-1.04c-0.035-0.044-0.069-0.088-0.102-0.132
		c-0.361-0.472-0.657-0.968-0.893-1.491c-0.005-0.012-0.011-0.025-0.016-0.037c-0.2-0.45-0.351-0.911-0.446-1.391
		c-0.058-0.294-0.113-0.587-0.129-0.89c-0.005-0.108-0.046-0.208-0.046-0.317c-0.026-0.154-0.051-0.102-0.026-0.307
		c-2.464,1.242-4.657,2.842-6.565,4.726c-1.605,1.585-2.965,3.403-4.147,5.356C220.166,59.953,225.684,60.878,231.891,62.397z"/>
	<path fill="#876628" d="M225.024,88.187c0.113,0.435,0.187,0.89,0.326,1.31C225.212,89.077,225.136,88.623,225.024,88.187z"/>
	<path fill="#876628" d="M224.308,82.685v0.281c0-1.78,0.279-3.463,0.681-5.078c-0.085,0.34-0.203,0.659-0.272,1.009
		c-4.931-0.502-9.832-1.354-13.818-2.243c0.005,4.775,1.026,9.276,2.794,13.296C216.591,87.233,219.908,84.439,224.308,82.685z"/>
	<path fill="#876628" d="M228.992,25.972c0.122-1.842-0.279-3.582-1.009-5.143c-1.571-3.362-4.826-5.812-8.793-6.092
		c-5.81-0.41-10.826,3.992-11.235,9.802c-0.348,5.256,3.216,9.826,8.197,10.959c0.525,0.119,1.051,0.237,1.604,0.276
		C223.566,36.184,228.582,31.782,228.992,25.972z"/>
	<path fill="#876628" d="M259.267,40.867c0.486,0.032,0.954-0.016,1.427-0.048c5.178-0.356,9.433-4.429,9.809-9.753
		c0.384-5.809-3.993-10.826-9.802-11.235c-3.344-0.236-6.4,1.155-8.493,3.458c-1.544,1.698-2.579,3.878-2.742,6.344
		C249.081,35.442,253.458,40.458,259.267,40.867z"/>
	<path fill="#876628" d="M238.179,42.71c-0.197,0-0.37,0.07-0.553,0.111c0.217-0.035,0.431-0.089,0.648-0.092
		C238.241,42.728,238.213,42.71,238.179,42.71z"/>
	<path fill="#876628" d="M198.997,58.91c0,0-4.427,1.587-5.195,6.782c-0.793,5.221,2.534,5.374,8.829,8.522
		c1.284,0.649,4.33,1.563,8.268,2.441c3.986,0.889,8.887,1.741,13.818,2.243c0.069-0.35,0.187-0.669,0.272-1.009
		c0.301-1.211,0.698-2.355,1.189-3.427c0.137-0.299,0.246-0.622,0.396-0.909c0.23-0.44,0.509-0.829,0.769-1.238
		c0.256-0.403,0.503-0.813,0.786-1.185c0.276-0.363,0.58-0.686,0.88-1.018c0.323-0.357,0.648-0.705,0.996-1.023
		c0.313-0.286,0.639-0.547,0.97-0.8c0.39-0.297,0.79-0.564,1.203-0.812c0.331-0.199,0.664-0.395,1.008-0.561
		c0.489-0.236,0.995-0.415,1.507-0.582c0.301-0.098,0.595-0.219,0.903-0.292c0.841-0.199,1.701-0.324,2.583-0.324
		c2.819,0,5.55,1.084,7.851,3.049c0.202,0.173,0.374,0.398,0.57,0.585c0.52,0.496,1.035,1.005,1.5,1.594
		c0.043,0.054,0.095,0.091,0.138,0.146c-0.205-1.254-0.691-2.661-1.587-4.274c-4.816-1.716-9.362-3.071-13.602-4.147
		c-0.691,0.367-1.382,0.737-2.035,1.23c0.213-0.489,0.532-0.994,0.878-1.503c-6.208-1.519-11.726-2.445-16.376-2.977
		c-4.626-0.529-8.427-0.697-11.195-0.715C200.866,58.705,198.997,58.91,198.997,58.91z"/>
	<path fill="#876628" d="M233.701,60.19c-0.747,0.763-1.324,1.493-1.809,2.208c-0.346,0.509-0.665,1.014-0.878,1.503
		c0.653-0.492,1.344-0.863,2.035-1.23c2.936-1.559,6.135-2.03,9.098-1.202c6.142,1.766,10.032,8.497,9.367,16.354
		c4.866,0.861,9.801,1.372,13.872,1.601c4.043,0.228,7.234,0.176,8.649-0.091c6.935-1.331,10.16-0.563,10.826-5.784
		c0.64-5.221-3.173-7.934-3.173-7.934s-1.74-0.742-5.067-1.689c-3.413-0.943-8.541-2.101-15.073-2.945
		C254.07,60.016,244.737,59.466,233.701,60.19z"/>
	<path fill="#876628" d="M225.351,89.497c-0.139-0.42-0.214-0.875-0.326-1.31c-0.156-0.606-0.339-1.198-0.442-1.83
		c-0.178-1.098-0.274-2.23-0.274-3.39v-0.281c-4.4,1.754-7.717,4.548-10.615,7.265c-0.699,0.655-1.377,1.296-2.034,1.926h14.691
		c-0.041-0.084-0.07-0.177-0.11-0.262C225.916,90.928,225.596,90.238,225.351,89.497z"/>
	<path fill="#876628" d="M252.05,82.685c0,0.077,0,0.179,0,0.281c0,1.169-0.099,2.309-0.277,3.414
		c-0.059,0.367-0.177,0.703-0.255,1.061c-0.156,0.721-0.304,1.445-0.531,2.126c-0.134,0.401-0.323,0.762-0.48,1.147
		c-0.159,0.391-0.305,0.79-0.487,1.163h14.689c-0.648-0.62-1.317-1.251-2.005-1.895C259.793,87.254,256.467,84.446,252.05,82.685z"
		/>
	<path fill="#06839F" d="M230.655,38.524c-1.541,0-2.79-1.249-2.79-2.79c0-0.339,0.082-0.655,0.193-0.955
		c-0.19,0.377-0.321,0.786-0.321,1.236c0,1.541,1.249,2.79,2.79,2.79c1.202,0,2.205-0.77,2.597-1.835
		C232.665,37.881,231.745,38.524,230.655,38.524z"/>
	<path fill="#62BFEC" d="M230.668,32.947c-0.005,0-0.008-0.003-0.013-0.003c-0.021,0-0.039,0.012-0.06,0.012
		c-0.272,0.006-0.523,0.077-0.77,0.155c-0.821,0.261-1.47,0.862-1.766,1.667c-0.111,0.3-0.193,0.616-0.193,0.955
		c0,1.541,1.249,2.79,2.79,2.79c1.09,0,2.01-0.642,2.469-1.554c0.189-0.377,0.32-0.786,0.32-1.236c0-0.324-0.083-0.623-0.184-0.912
		C232.881,33.739,231.879,32.953,230.668,32.947z M230.706,38.165c-1.343,0-2.431-1.088-2.431-2.431s1.088-2.431,2.431-2.431
		c1.343,0,2.431,1.088,2.431,2.431S232.049,38.165,230.706,38.165z"/>
	<circle fill="#4D9EC4" cx="230.706" cy="35.734" r="2.431"/>
	<path fill="#06839F" d="M243.221,36.066c0,0.779,0.322,1.48,0.838,1.986c0.503,0.495,1.191,0.803,1.952,0.803
		c0.455,0,0.868-0.135,1.247-0.328c-0.31,0.119-0.64,0.2-0.991,0.2c-1.541,0-2.79-1.249-2.79-2.789c0-1.085,0.637-2,1.542-2.462
		C243.971,33.879,243.221,34.878,243.221,36.066z"/>
	<path fill="#62BFEC" d="M243.477,35.939c0,1.541,1.249,2.789,2.79,2.789c0.352,0,0.682-0.081,0.991-0.2
		c0.343-0.132,0.652-0.324,0.914-0.572c0.539-0.508,0.884-1.218,0.884-2.018c0-1.541-1.249-2.79-2.789-2.79
		c-0.455,0-0.868,0.135-1.247,0.328C244.114,33.938,243.477,34.854,243.477,35.939z M248.749,35.964
		c0,1.343-1.088,2.431-2.431,2.431c-1.343,0-2.431-1.088-2.431-2.431c0-1.343,1.088-2.431,2.431-2.431
		C247.66,33.533,248.749,34.622,248.749,35.964z"/>
	<circle fill="#4D9EC4" cx="246.318" cy="35.964" r="2.431"/>
	<path fill="#010101" d="M241.353,45.28c0.486-1.587-1.356-2.559-3.02-2.559c-0.02,0-0.039,0.008-0.059,0.008
		c-0.217,0.003-0.431,0.057-0.648,0.092c-1.433,0.23-2.752,1.097-2.313,2.459c0.563,1.766,1.331,3.02,3.02,3.02
		C239.996,48.3,240.867,46.943,241.353,45.28z"/>
	<path fill="#BDBEC0" d="M104.568,19.037c0,5.333,3.692,9.764,8.643,11.023c3.255-6.072,7.987-11.078,13.621-14.333
		c-1.422-4.677-5.716-8.096-10.859-8.096C109.683,7.631,104.568,12.746,104.568,19.037z"/>
	<path fill="#BDBEC0" d="M169.228,7.631c-5.142,0-9.437,3.419-10.859,8.096c5.662,3.282,10.394,8.261,13.649,14.333
		c4.951-1.258,8.616-5.689,8.616-11.023C180.633,12.746,175.519,7.631,169.228,7.631z"/>
	<path fill="#BDBEC0" d="M169.994,66.902c-0.52,0.875-1.094,1.696-1.75,2.489c0.055-0.273-0.055-0.547-0.246-0.738
		c-0.246,0.629-0.602,1.203-1.039,1.723c0-0.41,0-0.793-0.027-1.203c-0.41,0.711-0.903,1.395-1.422,2.024
		c-0.082-0.328-0.109-0.657-0.082-0.985c-0.411,0.164-0.793,0.41-1.067,0.738c0.048-0.297-0.082-0.59-0.107-0.891
		c-5.897,3.751-13.426,6.006-21.638,6.006c-7.369,0-14.122-1.881-19.706-4.959c-0.007,0.297-0.015,0.593-0.015,0.883
		c-0.492-0.383-1.039-0.684-1.641-0.875c-0.11,0.301-0.137,0.629-0.11,0.93c-0.875-0.602-1.641-1.34-2.297-2.161
		c-0.027,0.602,0,1.203,0.109,1.805c-1.203-1.313-2.325-2.735-3.364-4.212c0.191,0.574,0.246,1.203,0.219,1.833
		c-0.574-0.711-1.176-1.422-1.751-2.133c-0.18-0.215-0.357-0.439-0.533-0.662c-0.673,0.801-1.253,1.873-1.682,3.315
		c-1.413,4.747-2.414,13.555-3.097,22.047h20.362c2.914-7.023,7.872-11.654,13.506-11.654c5.634,0,10.592,4.63,13.506,11.654h19.601
		c-0.267-10.195-1.269-21.402-4.146-25.927c-0.59,0.595-1.173,1.195-1.664,1.856C169.829,67.504,169.857,67.176,169.994,66.902z"/>
	<path fill="#B2B4B7" d="M116.001,0c-10.503,0-19.009,8.507-19.009,19.009c0,8.507,5.607,15.618,13.293,18.052
		c-1.203,3.884-1.888,8.041-1.888,12.39c0,1.203,0.11,2.38,0.301,3.556c0.164,1.012,0.52,1.915,0.574,2.927
		c0.082,1.258,0.164,2.489,0.328,3.747c0.328,2.407,0.875,4.786,1.641,7.111c0.137-1.231,0.356-2.434,0.711-3.61
		c0.09,1.252,0.786,2.334,1.573,3.331c0.176,0.223,0.353,0.447,0.533,0.662c0.574,0.711,1.176,1.422,1.751,2.133
		c0.027-0.629-0.027-1.258-0.219-1.833c1.039,1.477,2.161,2.899,3.364,4.212c-0.109-0.602-0.137-1.203-0.109-1.805
		c0.656,0.821,1.422,1.559,2.297,2.161c-0.027-0.301,0-0.629,0.11-0.93c0.602,0.191,1.149,0.492,1.641,0.875
		c0-0.29,0.007-0.586,0.015-0.883c5.584,3.078,12.337,4.959,19.706,4.959c8.211,0,15.741-2.255,21.638-6.006
		c-0.032-0.391,0.016-0.789-0.139-1.16l11.652-18.626c0.186,1.505,0.286,3.018,0.374,4.53c0.454-1.729,0.693-3.518,0.693-5.351
		c0-4.349-0.684-8.506-1.887-12.39c7.686-2.434,13.293-9.546,13.293-18.052C188.237,8.507,179.731,0,169.228,0
		c-8.288,0-15.262,5.333-17.861,12.719c-2.79-0.82-5.716-1.313-8.753-1.313c-3.036,0-5.962,0.492-8.753,1.313
		C131.264,5.333,124.289,0,116.001,0z M172.018,30.06c-3.255-6.072-7.987-11.05-13.649-14.333c1.422-4.677,5.717-8.096,10.859-8.096
		c6.291,0,11.405,5.115,11.405,11.406C180.633,24.37,176.968,28.801,172.018,30.06z M126.833,15.727
		c-5.635,3.255-10.367,8.261-13.621,14.333c-4.951-1.258-8.643-5.689-8.643-11.023c0-6.291,5.115-11.406,11.405-11.406
		C121.116,7.631,125.41,11.05,126.833,15.727z M123.058,41.848c0-2.402,1.947-4.349,4.349-4.349c2.402,0,4.349,1.947,4.349,4.349
		s-1.947,4.349-4.349,4.349C125.005,46.197,123.058,44.25,123.058,41.848z M162.171,41.848c0,2.402-1.947,4.349-4.349,4.349
		c-2.402,0-4.349-1.947-4.349-4.349s1.947-4.349,4.349-4.349C160.224,37.499,162.171,39.446,162.171,41.848z M150.875,49.944
		c0,7.372-3.698,13.348-8.26,13.348c-4.562,0-8.26-5.976-8.26-13.348c0-7.372,3.698-13.348,8.26-13.348
		C147.176,36.597,150.875,42.573,150.875,49.944z"/>
	<ellipse fill="#3E3E3E" cx="142.614" cy="49.944" rx="8.26" ry="13.348"/>
	<path fill="#C7C8C9" d="M142.614,80.223c-5.634,0-10.592,4.63-13.506,11.654h27.012C153.206,84.853,148.248,80.223,142.614,80.223z
		"/>
	<path fill="#010101" d="M131.756,41.848c0-2.402-1.947-4.349-4.349-4.349c-2.402,0-4.349,1.947-4.349,4.349
		s1.947,4.349,4.349,4.349C129.809,46.197,131.756,44.25,131.756,41.848z M129.896,40.398c0.027-0.41,0.192-0.656,0.383-0.602
		c0.191,0.055,0.356,0.519,0.356,0.903c-0.027,0.41-0.191,0.657-0.383,0.602C130.033,41.165,129.896,40.782,129.896,40.398z"/>
	<path fill="#010101" d="M153.473,41.848c0,2.402,1.947,4.349,4.349,4.349c2.402,0,4.349-1.947,4.349-4.349
		s-1.947-4.349-4.349-4.349C155.42,37.499,153.473,39.446,153.473,41.848z M161.186,40.699c-0.027,0.41-0.192,0.657-0.383,0.602
		c-0.219-0.137-0.356-0.52-0.356-0.903c0-0.383,0.191-0.656,0.383-0.602C161.022,39.851,161.186,40.316,161.186,40.699z"/>
	<path fill="#FFFFFF" d="M130.634,40.699c0-0.383-0.164-0.848-0.356-0.903c-0.191-0.055-0.356,0.191-0.383,0.602
		c0,0.383,0.137,0.766,0.356,0.903C130.443,41.356,130.607,41.11,130.634,40.699z"/>
	<path fill="#FFFFFF" d="M160.448,40.398c0,0.383,0.137,0.766,0.356,0.903c0.191,0.055,0.356-0.192,0.383-0.602
		c0-0.383-0.164-0.848-0.356-0.903C160.639,39.742,160.448,40.016,160.448,40.398z"/>
	<path fill="#B2B4B7" d="M164.113,68.899c0.155,0.371,0.107,0.769,0.139,1.16c0.025,0.301,0.155,0.594,0.107,0.891
		c0.273-0.328,0.656-0.574,1.067-0.738c-0.027,0.328,0,0.656,0.082,0.985c0.52-0.629,1.012-1.313,1.422-2.024
		c0.027,0.41,0.027,0.793,0.027,1.203c0.438-0.519,0.793-1.094,1.039-1.723c0.191,0.191,0.301,0.465,0.246,0.738
		c0.656-0.793,1.231-1.614,1.75-2.489c-0.137,0.274-0.164,0.602-0.082,0.903c0.49-0.661,1.074-1.261,1.664-1.856
		c0.167-0.168,0.295-0.361,0.47-0.524c0.082,0.383,0.137,0.766,0.219,1.149c0.438-1.012,0.848-2.051,1.286-3.064
		c0.273,0.52,0.547,1.012,0.82,1.504c0.246-1.833,0.629-3.638,1.149-5.388c0.438,0.547,0.711,1.286,0.711,2.024
		c0.099-2.286,0.041-4.569-0.091-6.848c-0.088-1.513-0.188-3.025-0.374-4.53L164.113,68.899z"/>
	<path fill="#FFFFFF" d="M11.3,35.634c2.029,0,0.568-2.517,0-3.274c-1.434-1.732-2.706-3.274-3.464-5.384
		c-0.676-2.003-0.947-4.113-1.055-6.142C6.7,19.182,6.51,16.504,8.134,15.448c0.108,0,0.108,0,0.108,0
		c2.029-1.163,4.816-0.595,6.927-0.108c2.408,0.568,4.708,1.542,6.927,2.597c1.542,0.758,2.976,1.542,4.329,2.489
		c0.487,0.298,0.785,0.758,1.164,1.055c0.081,0.108,0.271,0.108,0.379,0.108c0.081-0.081,0.189-0.081,0.189-0.189
		c0.081-0.108,0.081-0.189-0.027-0.297c-0.189-0.487-0.758-0.866-1.055-1.245c-1.921-1.921-4.329-3.274-6.818-4.329
		c-4.817-2.111-9.903-3.924-15.18-4.032c-2.868-0.081-2.868,2.895-2.3,5.006c0.379,1.515,1.245,3.058,1.732,4.6
		c0.676,1.921,1.136,3.951,1.623,5.872c0.487,1.732,1.434,3.842,2.3,5.384C8.892,33.334,10.055,35.634,11.3,35.634z"/>
	<path fill="#FFFFFF" d="M60.897,64.91c1.055-2.408-1.623-5.087-3.355-6.061c-2.706-1.515-3.842-4.221-5.385-6.71
		c-1.461-2.219-3.653-3.085-6.25-3.085c-2.598,0-4.898,0.866-6.251,3.085c-1.542,2.571-2.706,5.168-5.384,6.71
		c-1.732,0.974-4.302,3.653-3.355,6.061c2.3,5.493,10.093,5.682,14.99,5.872C50.804,70.565,58.597,70.484,60.897,64.91z
		 M40.522,64.91c-0.108-0.406-0.216-0.785-0.108-1.163c0.108-0.866,0.676-1.623,1.353-2.111c0.785-0.46,1.732-0.758,2.597-0.947
		c0.568-0.108,1.055-0.108,1.624-0.108c0.676,0,1.353,0.108,2.029,0.297c0.974,0.189,1.921,0.568,2.597,1.353
		c1.055,1.137,0.866,2.977,0,4.221c-1.163,1.732-3.355,3.166-5.574,2.679C43.012,68.644,41.009,67.021,40.522,64.91z"/>
	<path fill="#FFFFFF" d="M83.193,32.441c0.866-1.542,1.813-3.761,2.3-5.385c0.568-2.029,0.947-3.951,1.624-5.872
		c0.487-1.515,1.353-2.977,1.732-4.6c0.568-2.111,0.568-5.087-2.327-5.006c-5.384,0.081-10.39,1.921-15.18,4.032
		c-2.489,1.055-4.898,2.408-6.819,4.329c-0.379,0.298-0.947,0.758-1.055,1.245c0,0.108,0,0.189,0,0.298
		c0.081,0.081,0.081,0.189,0.189,0.189c0.189,0,0.271,0,0.379-0.108c0.487-0.298,0.785-0.758,1.163-1.055
		c1.353-0.947,2.895-1.813,4.329-2.489c2.219-1.055,4.518-2.029,6.927-2.597c2.138-0.568,4.897-1.137,6.927,0.108
		c0.108,0,0.108,0,0.108,0c1.651,1.055,1.461,3.653,1.353,5.384c-0.108,2.111-0.379,4.221-1.055,6.142
		c-0.785,2.219-2.111,3.653-3.463,5.385c-0.568,0.785-2.029,3.274,0,3.274C81.569,35.715,82.706,33.388,83.193,32.441z"/>
	<path fill="#FFFFFF" d="M34.948,42.046c1.245,0.785,3.355,2.029,3.463,3.653c0.108,0.568-0.271,0.866-0.757,0.677
		c-1.245-0.379-2.489-0.947-3.653-1.624c-1.624-0.866-4.519-1.272-5.466,0.758c-0.297,0.568-0.189,1.434,0.568,1.623
		c1.434,0.298,1.163,1.164,1.163,2.381c0.081,1.353,0.379,2.787,1.245,3.951c1.326,1.732,3.166,1.245,4.6,0.298
		c0.676-0.379,1.245-0.947,1.732-1.434c1.921-2.138,3.166-4.925,3.545-7.793c0.298-2.408-1.055-4.248-3.166-5.195
		c-0.974-0.46-5.385-1.813-6.251-0.758C31.106,39.557,34.001,41.37,34.948,42.046z M35.679,47.241
		c1.461,0.46,2.111,2.111,1.542,3.653c-0.027,0.065-0.077,0.111-0.107,0.173c-0.264,0.715-0.772,1.301-1.489,1.559
		c-0.119,0.041-0.247,0.023-0.37,0.045c-0.477,0.127-0.98,0.16-1.497-0.045c-0.772-0.306-1.299-0.933-1.556-1.664
		c-0.009-0.026-0.032-0.042-0.04-0.068c-0.038-0.12-0.025-0.236-0.048-0.356c-0.037-0.193-0.083-0.379-0.078-0.577
		c-0.025-1.194,0.593-2.267,1.669-2.719c0.506-0.213,1.038-0.187,1.546-0.057C35.393,47.209,35.538,47.191,35.679,47.241z"/>
	<path fill="#FFFFFF" d="M25.749,69.429c0.487-0.487-2.679-3.463-3.166-5.006c-0.676-2.3,0.081-4.519,1.055-6.657
		c1.055-2.002,2.868-4.032,2.489-6.521c-0.379-2.976-3.951-4.6-6.44-4.221c-2.598,0.487-4.898,2.408-6.629,4.221
		c-0.757,0.785-1.434,1.732-2.111,2.598c-0.297,0.379-1.84,2.111-1.353,2.598c0.379,0.297,2.977-1.055,4.411-1.245
		c2.408-0.271-0.271,1.732-0.947,2.219c-0.676,0.568-2.597,1.921-2.408,2.598c0.108,0.487,1.84-0.46,2.029-0.568
		c1.055-0.487,1.732-0.677,2.408,0.568c1.164,2.111,2.219,4.329,3.951,6.061C20.851,67.806,25.262,69.998,25.749,69.429z"/>
	<path fill="#FFFFFF" d="M78.566,51.3c-1.84-1.921-4.032-3.734-6.629-4.221c-2.489-0.379-6.061,1.245-6.44,4.221
		c-0.298,2.489,1.434,4.492,2.489,6.521c1.055,2.111,1.84,4.329,1.164,6.629c-0.379,1.542-3.653,4.438-3.166,5.006
		c0.46,0.595,4.898-1.543,6.711-3.355c1.732-1.732,2.706-3.951,3.951-6.061c0.785-1.245,1.353-1.055,2.408-0.568
		c0.216,0.081,1.921,1.055,2.029,0.568c0.189-0.676-1.651-2.111-2.408-2.597c-0.568-0.487-3.355-2.517-0.947-2.219
		c1.542,0.189,4.032,1.623,4.411,1.245c0.46-0.487-1.055-2.219-1.461-2.57C80,53.032,79.324,52.058,78.566,51.3z"/>
	<path fill="#FFFFFF" d="M53.348,45.726c0-1.623,2.219-2.787,3.464-3.653c0.866-0.595,3.842-2.517,2.976-3.463
		c-0.866-1.055-5.195,0.271-6.251,0.757c-2.111,0.974-3.463,2.787-3.166,5.195c0.379,2.787,1.623,5.574,3.545,7.793
		c0.487,0.487,1.055,0.947,1.732,1.434c1.515,0.947,3.355,1.326,4.6-0.298c0.866-1.163,1.137-2.598,1.245-3.951
		c0.081-1.163-0.189-2.111,1.245-2.408c0.758-0.189,0.947-1.055,0.487-1.596c-0.947-2.002-3.734-1.623-5.466-0.758
		c-1.163,0.568-2.3,1.245-3.653,1.623C53.646,46.484,53.348,46.213,53.348,45.726z M58.11,47.188
		c1.107,0.369,1.742,1.392,1.74,2.537c0.008,0.383-0.054,0.78-0.198,1.17c-0.595,1.434-2.029,2.3-3.463,1.732
		c-1.085-0.43-1.731-1.479-1.738-2.586c-0.009-0.374,0.05-0.754,0.195-1.121C55.242,47.485,56.757,46.7,58.11,47.188z"/>
	<path fill="#9F3B22" d="M60.491,73.325c0,0,4.226-1.758,9.531-2.555c3.195-2.322,6.283-5.526,8.409-9.972
		c0-0.108,0.108-0.108,0.108-0.189c3.166,2.219,6.061-0.298,1.813-3.274c1.055,0.298,2.489,1.245,3.166,0
		c0.487-0.866-0.298-2.408-0.677-3.085c-0.298-0.487-0.676-0.947-1.055-1.434c2.219-8.848-0.108-13.935-0.108-13.935
		c1.245-1.732,2.3-3.545,3.355-5.466c1.434-2.679,1.921-4.518,2.598-7.495c0.677-3.085,1.921-5.763,3.274-8.632
		c0.839-2.219,1.299-6.358-1.569-7.116c-4.897-1.245-10.363,0.568-14.801,2.408c-5.006,2.029-8.55,3.951-12.203,7.874
		c0,0-7.387-3.842-16.613-3.842c-9.227,0-16.235,3.842-16.235,3.842c-3.653-3.951-7.116-5.763-12.203-7.874
		c-4.518-1.813-9.984-3.653-14.801-2.408c-2.868,0.758-2.408,4.789-1.434,6.927c1.353,2.868,2.489,5.574,3.274,8.632
		c0.676,2.977,1.163,4.789,2.597,7.495c0.947,1.921,2.111,3.734,3.355,5.466c0,0-2.3,5.087-0.108,13.935
		c-0.379,0.487-0.677,0.947-1.055,1.434c-0.379,0.676-1.164,2.219-0.677,3.085c0.677,1.245,2.111,0.379,3.166,0
		c-4.221,2.977-1.353,5.466,1.813,3.274c0,0.108,0.108,0.108,0.108,0.189c2.029,4.357,4.954,7.547,8.007,9.877
		c2.886,0.327,5.495,1.812,5.495,1.812L60.491,73.325z M15.088,60.013c-0.676-1.245-1.353-1.055-2.408-0.568
		c-0.189,0.108-1.921,1.055-2.029,0.568c-0.189-0.677,1.732-2.029,2.408-2.598c0.677-0.487,3.355-2.489,0.947-2.219
		c-1.434,0.189-4.032,1.542-4.411,1.245c-0.487-0.487,1.055-2.219,1.353-2.598c0.677-0.866,1.353-1.813,2.111-2.598
		c1.732-1.813,4.032-3.734,6.629-4.221c2.489-0.379,6.061,1.245,6.44,4.221c0.379,2.489-1.434,4.519-2.489,6.521
		c-0.974,2.138-1.732,4.357-1.055,6.657c0.487,1.542,3.653,4.518,3.166,5.006c-0.487,0.568-4.898-1.623-6.711-3.355
		C17.307,64.342,16.251,62.124,15.088,60.013z M31.972,38.583c0.866-1.055,5.276,0.298,6.251,0.758
		c2.11,0.947,3.463,2.787,3.166,5.195c-0.379,2.868-1.623,5.655-3.545,7.793c-0.487,0.487-1.055,1.055-1.732,1.434
		c-1.434,0.947-3.274,1.434-4.6-0.298c-0.866-1.163-1.163-2.597-1.245-3.951c0-1.217,0.271-2.083-1.163-2.381
		c-0.758-0.189-0.866-1.055-0.568-1.623c0.947-2.029,3.842-1.623,5.466-0.758c1.163,0.677,2.408,1.245,3.653,1.624
		c0.487,0.189,0.866-0.108,0.757-0.677c-0.108-1.623-2.219-2.868-3.463-3.653C34.001,41.37,31.106,39.557,31.972,38.583z
		 M82.138,56.468c-0.379,0.379-2.868-1.055-4.411-1.245c-2.408-0.298,0.379,1.732,0.947,2.219c0.757,0.487,2.597,1.921,2.408,2.597
		c-0.108,0.487-1.813-0.487-2.029-0.568c-1.055-0.487-1.624-0.677-2.408,0.568c-1.245,2.111-2.219,4.329-3.951,6.061
		c-1.813,1.813-6.251,3.951-6.711,3.355c-0.487-0.568,2.787-3.464,3.166-5.006c0.676-2.3-0.108-4.518-1.164-6.629
		c-1.055-2.029-2.787-4.032-2.489-6.521c0.379-2.977,3.951-4.6,6.44-4.221c2.598,0.487,4.789,2.3,6.629,4.221
		c0.758,0.758,1.434,1.732,2.111,2.598C81.082,54.25,82.598,55.981,82.138,56.468z M57.758,44.779
		c1.732-0.866,4.519-1.245,5.466,0.758c0.46,0.541,0.271,1.407-0.487,1.596c-1.434,0.298-1.163,1.245-1.245,2.408
		c-0.108,1.353-0.379,2.787-1.245,3.951c-1.245,1.623-3.085,1.245-4.6,0.298c-0.676-0.487-1.245-0.947-1.732-1.434
		c-1.921-2.219-3.166-5.006-3.545-7.793c-0.298-2.408,1.055-4.221,3.166-5.195c1.055-0.487,5.384-1.813,6.251-0.757
		c0.866,0.947-2.111,2.868-2.976,3.463c-1.245,0.866-3.464,2.029-3.464,3.653c0,0.487,0.298,0.758,0.758,0.676
		C55.458,46.024,56.595,45.348,57.758,44.779z M30.917,64.91c-0.947-2.408,1.624-5.087,3.355-6.061
		c2.679-1.542,3.842-4.14,5.384-6.71c1.353-2.219,3.653-3.085,6.251-3.085c2.597,0,4.789,0.866,6.25,3.085
		c1.543,2.489,2.679,5.195,5.385,6.71c1.732,0.974,4.41,3.653,3.355,6.061c-2.3,5.574-10.093,5.655-14.99,5.872
		C41.009,70.593,33.217,70.403,30.917,64.91z M4.508,21.104c-0.487-1.542-1.353-3.085-1.732-4.6c-0.568-2.111-0.568-5.087,2.3-5.006
		c5.276,0.108,10.363,1.921,15.18,4.032c2.489,1.055,4.897,2.408,6.818,4.329c0.298,0.379,0.866,0.758,1.055,1.245
		c0.108,0.108,0.108,0.189,0.027,0.297c0,0.108-0.108,0.108-0.189,0.189c-0.108,0-0.298,0-0.379-0.108
		c-0.379-0.298-0.677-0.758-1.164-1.055c-1.353-0.947-2.787-1.732-4.329-2.489c-2.219-1.055-4.519-2.029-6.927-2.597
		c-2.111-0.487-4.897-1.055-6.927,0.108c0,0,0,0-0.108,0C6.51,16.504,6.7,19.182,6.781,20.833c0.108,2.029,0.379,4.14,1.055,6.142
		c0.758,2.111,2.029,3.653,3.464,5.384c0.568,0.757,2.029,3.274,0,3.274c-1.245,0-2.408-2.3-2.868-3.274
		c-0.866-1.542-1.813-3.653-2.3-5.384C5.644,25.054,5.184,23.025,4.508,21.104z M80.325,32.441c1.353-1.732,2.679-3.166,3.463-5.385
		c0.676-1.921,0.947-4.032,1.055-6.142c0.108-1.732,0.298-4.329-1.353-5.384c0,0,0,0-0.108,0c-2.029-1.245-4.789-0.677-6.927-0.108
		c-2.408,0.568-4.708,1.542-6.927,2.597c-1.434,0.677-2.977,1.543-4.329,2.489c-0.379,0.298-0.677,0.758-1.163,1.055
		c-0.108,0.108-0.189,0.108-0.379,0.108c-0.108,0-0.108-0.108-0.189-0.189c0-0.108,0-0.189,0-0.298
		c0.108-0.487,0.676-0.947,1.055-1.245c1.921-1.921,4.329-3.274,6.819-4.329c4.789-2.111,9.795-3.951,15.18-4.032
		c2.895-0.081,2.895,2.895,2.327,5.006c-0.379,1.623-1.245,3.085-1.732,4.6c-0.677,1.921-1.055,3.842-1.624,5.872
		c-0.487,1.623-1.434,3.842-2.3,5.385c-0.487,0.947-1.623,3.274-2.868,3.274C78.296,35.715,79.757,33.225,80.325,32.441z"/>
	<path fill="#9F3B22" d="M33.704,47.241c-1.076,0.452-1.694,1.525-1.669,2.719c0.007-0.33,0.053-0.664,0.181-0.988
		c0.533-1.284,1.803-1.993,3.034-1.789C34.741,47.055,34.21,47.029,33.704,47.241z"/>
	<path fill="#9F3B22" d="M32.162,50.894c0.009,0.026,0.031,0.042,0.04,0.068c-0.048-0.136-0.062-0.282-0.089-0.424
		C32.137,50.658,32.123,50.774,32.162,50.894z"/>
	<path fill="#9F3B22" d="M35.255,52.671c0.123-0.022,0.251-0.004,0.37-0.045c0.717-0.258,1.225-0.843,1.489-1.559
		C36.716,51.888,36.043,52.461,35.255,52.671z"/>
	<path fill="#9F3B22" d="M56.189,52.572c-1.067-0.423-1.71-1.445-1.738-2.532c0.006,1.107,0.653,2.156,1.738,2.586
		c1.434,0.568,2.868-0.297,3.463-1.732c0.144-0.39,0.206-0.787,0.198-1.17c-0.001,0.365-0.06,0.743-0.198,1.116
		C59.057,52.274,57.623,53.14,56.189,52.572z"/>
	<path fill="#010101" d="M50.615,66.453c0.866-1.245,1.055-3.085,0-4.221c-0.676-0.785-1.623-1.163-2.597-1.353
		c-0.677-0.189-1.353-0.297-2.029-0.297c-0.568,0-1.055,0-1.624,0.108c-0.866,0.189-1.813,0.487-2.597,0.947
		c-0.677,0.487-1.245,1.245-1.353,2.111c-0.108,0.379,0,0.758,0.108,1.163c0.487,2.111,2.489,3.734,4.519,4.221
		C47.26,69.619,49.452,68.184,50.615,66.453z M49.37,63.287c-0.054-0.703,0.054-1.109,0.271-0.974
		c0.216,0.108,0.487,0.974,0.541,1.677c0.054,0.704-0.054,1.109-0.271,0.974C49.668,64.667,49.424,63.99,49.37,63.287z"/>
	<path fill="#010101" d="M54.647,48.919c-0.145,0.367-0.205,0.747-0.195,1.121c0.028,1.086,0.67,2.109,1.738,2.532
		c1.434,0.568,2.868-0.298,3.463-1.732c0.137-0.373,0.197-0.751,0.198-1.116c0.002-1.145-0.633-2.168-1.74-2.537
		C56.757,46.7,55.242,47.485,54.647,48.919z M58.245,48.567c0.027-0.406,0.189-0.649,0.379-0.595
		c0.189,0.027,0.352,0.487,0.352,0.893c-0.027,0.406-0.189,0.649-0.379,0.595C58.381,49.325,58.245,48.946,58.245,48.567z"/>
	<path fill="#FFFFFF" d="M58.976,48.865c0-0.406-0.162-0.866-0.352-0.893c-0.189-0.054-0.352,0.189-0.379,0.595
		c0,0.379,0.135,0.757,0.352,0.893C58.787,49.514,58.949,49.271,58.976,48.865z"/>
	<path fill="#010101" d="M32.215,48.973c-0.128,0.323-0.174,0.657-0.181,0.988c-0.005,0.199,0.042,0.384,0.078,0.577
		c0.027,0.143,0.041,0.288,0.089,0.424c0.257,0.731,0.784,1.358,1.556,1.664c0.517,0.205,1.02,0.172,1.497,0.045
		c0.788-0.21,1.461-0.783,1.859-1.604c0.03-0.062,0.08-0.108,0.107-0.173c0.568-1.542-0.081-3.193-1.542-3.653
		c-0.141-0.051-0.286-0.033-0.429-0.057C34.018,46.98,32.749,47.689,32.215,48.973z M36.193,47.999
		c0.189,0.054,0.352,0.487,0.352,0.893c-0.027,0.406-0.189,0.649-0.379,0.595c-0.217-0.135-0.352-0.514-0.352-0.893
		C35.841,48.189,36.004,47.945,36.193,47.999z"/>
	<path fill="#FFFFFF" d="M36.166,49.487c0.189,0.054,0.352-0.189,0.379-0.595c0-0.406-0.162-0.839-0.352-0.893
		c-0.189-0.054-0.352,0.189-0.379,0.595C35.814,48.973,35.949,49.352,36.166,49.487z"/>
	<path fill="#FFFFFF" d="M50.182,63.99c-0.054-0.703-0.325-1.569-0.541-1.677c-0.217-0.135-0.325,0.271-0.271,0.974
		c0.054,0.703,0.298,1.38,0.541,1.678C50.128,65.1,50.236,64.694,50.182,63.99z"/>
	<path fill="#9F3B22" d="M80.82,91.877c-1.975-11.068-4.379-21.539-6.421-21.5c-1.503,0.023-2.97,0.182-4.377,0.394
		c-5.305,0.797-9.531,2.555-9.531,2.555L27.02,72.297c0,0-2.609-1.485-5.495-1.812c-2.249-0.254-4.662,0.177-6.167,2.678
		c-1.77,2.94-3.982,10.28-5.152,18.713H80.82z"/>
</g>
</svg>
