<?xml version="1.0" encoding="utf-8"?>
<!-- Generator: Adobe Illustrator 22.1.0, SVG Export Plug-In . SVG Version: 6.00 Build 0)  -->
<svg version="1.1" id="Layer_1" xmlns="http://www.w3.org/2000/svg" xmlns:xlink="http://www.w3.org/1999/xlink" x="0px" y="0px"
	 viewBox="0 0 500 500" style="enable-background:new 0 0 500 500;" xml:space="preserve">
<style type="text/css">
	.st0{fill:#4C3293;}
	.st1{clip-path:url(#SVGID_2_);fill:none;stroke:#FFFFFF;stroke-width:22.3727;stroke-miterlimit:10;}
	.st2{clip-path:url(#SVGID_4_);fill:none;stroke:#FFFFFF;stroke-width:22.3727;stroke-miterlimit:10;}
	.st3{clip-path:url(#SVGID_6_);fill:none;stroke:#FFFFFF;stroke-width:22.3727;stroke-miterlimit:10;}
	.st4{fill:none;stroke:#FDDC4B;stroke-width:22.3727;stroke-miterlimit:10;}
	.st5{fill:none;stroke:#E9CC46;stroke-width:22.3727;stroke-miterlimit:10;}
	.st6{fill:#FFFFFF;stroke:#FDDC4B;stroke-width:3.1961;stroke-miterlimit:10;}
	.st7{fill:#FFFFFF;stroke:#FDDC4B;stroke-width:2.5989;stroke-miterlimit:10;}
	.st8{fill:#FFFFFF;stroke:#FDDC4B;stroke-width:3.8985;stroke-miterlimit:10;}
</style>
<g>
	<path class="st0" d="M186,126.4L90.6,436.4c-3.4,11-11.1,22.1,0.4,21.9l305.4-7c11.6-0.2,2.9-11.3-1-22.2L285.7,123.9
		C268.5,76.6,200.8,78.2,186,126.4z"/>
	<g>
		<g>
			<defs>
				<path id="SVGID_1_" d="M187.2,125.4L91.9,435.4c-3.4,11,5,22.1,16.6,21.9l272.7-6.5c11.6-0.2,19.5-11.8,15.6-22.7L286.9,122.9
					C269.7,75.5,202.1,77.2,187.2,125.4z"/>
			</defs>
			<clipPath id="SVGID_2_">
				<use xlink:href="#SVGID_1_"  style="overflow:visible;"/>
			</clipPath>
			<line class="st1" x1="113.9" y1="253.3" x2="327.2" y2="136.9"/>
		</g>
		<g>
			<defs>
				<path id="SVGID_3_" d="M187.2,125.4L91.9,435.4c-3.4,11,5,22.1,16.6,21.9l272.7-6.5c11.6-0.2,19.5-11.8,15.6-22.7L286.9,122.9
					C269.7,75.5,202.1,77.2,187.2,125.4z"/>
			</defs>
			<clipPath id="SVGID_4_">
				<use xlink:href="#SVGID_3_"  style="overflow:visible;"/>
			</clipPath>
			<line class="st2" x1="90.2" y1="378.9" x2="350.2" y2="237.2"/>
		</g>
		<g>
			<defs>
				<path id="SVGID_5_" d="M187.2,125.4L91.9,435.4c-3.4,11,5,22.1,16.6,21.9l272.7-6.5c11.6-0.2,19.5-11.8,15.6-22.7L286.9,122.9
					C269.7,75.5,202.1,77.2,187.2,125.4z"/>
			</defs>
			<clipPath id="SVGID_6_">
				<use xlink:href="#SVGID_5_"  style="overflow:visible;"/>
			</clipPath>
			<line class="st3" x1="120" y1="477.4" x2="380" y2="335.6"/>
		</g>
	</g>
	<line class="st4" x1="165.6" y1="92.3" x2="304.8" y2="89"/>
	<line class="st4" x1="233.4" y1="22.1" x2="236.6" y2="161.3"/>
	<line class="st4" x1="185.2" y1="42.7" x2="287.1" y2="137.6"/>
	<line class="st5" x1="253.7" y1="20.9" x2="223.7" y2="156.9"/>
	<line class="st5" x1="304.5" y1="108.2" x2="171.1" y2="68.4"/>
	<line class="st4" x1="286.2" y1="43.3" x2="184.2" y2="138"/>
	<line class="st5" x1="203.4" y1="29.2" x2="272" y2="150.5"/>
	<line class="st5" x1="299.7" y1="60.3" x2="173.7" y2="119.8"/>
	<polygon class="st6" points="201,269.3 193.4,265.1 190,273 187.6,264.7 179.5,267.9 183.7,260.3 175.8,256.9 184.2,254.5 
		181,246.5 188.5,250.7 192,242.7 194.3,251.1 202.3,248 198.1,255.5 206.1,258.9 197.8,261.3 	"/>
	<polygon class="st7" points="318.7,345.4 312.6,342 309.7,348.4 307.8,341.8 301.2,344.3 304.7,338.2 298.2,335.4 305,333.4 
		302.5,327 308.6,330.3 311.4,323.8 313.2,330.6 319.8,328.1 316.4,334.2 322.8,337 316,338.9 	"/>
	<polygon class="st7" points="255.4,264.3 249.3,260.9 246.5,267.4 244.6,260.7 238,263.2 241.5,257.1 235,254.3 241.7,252.3 
		239.2,245.9 245.3,249.3 248.1,242.7 250.1,249.5 256.5,247 253.2,253.1 259.6,255.9 252.8,257.9 	"/>
	<polygon class="st7" points="199.1,181 193,177.7 190.2,184.1 188.2,177.3 181.6,179.9 185.1,173.8 178.6,171 185.4,169.1 
		182.9,162.5 189,166 191.8,159.5 193.6,166.2 200.2,163.6 196.8,169.8 203.2,172.5 196.5,174.5 	"/>
	<polygon class="st7" points="160.9,317.4 154.8,313.9 152,320.4 150.1,313.6 143.6,316.3 147,310.2 140.6,307.3 147.4,305.4 
		144.7,298.8 150.9,302.3 153.7,295.8 155.6,302.6 162.2,300 158.7,306.2 165.2,308.9 158.4,310.8 	"/>
	<polygon class="st7" points="254.2,347.2 247.9,343.8 245.2,350.2 243.3,343.4 236.7,346.1 240.2,340 233.7,337.1 240.5,335.2 
		237.9,328.6 244,332.1 246.8,325.6 248.7,332.4 255.3,329.8 251.8,336 258.3,338.7 251.5,340.6 	"/>
	<polygon class="st7" points="292.9,439.7 286.7,436.3 283.9,442.7 282,435.9 275.4,438.6 278.9,432.5 272.4,429.6 279.2,427.7 
		276.6,421.1 282.8,424.6 285.5,418.1 287.4,424.9 294,422.4 290.5,428.5 297,431.3 290.2,433.1 	"/>
	<polygon class="st7" points="132.3,421.6 126.2,418.2 123.4,424.7 121.6,418 115,420.5 118.4,414.4 112,411.6 118.8,409.6 
		116.1,403.2 122.2,406.6 125.1,400.1 127,406.8 133.6,404.3 130.1,410.4 136.6,413.2 129.8,415.2 	"/>
	<polygon class="st7" points="350.2,397 344.1,393.6 341.3,400.1 339.4,393.4 332.8,395.9 336.3,389.8 329.8,387 336.5,385 
		333.9,378.6 340.1,381.9 342.9,375.5 344.8,382.2 351.4,379.7 348,385.8 354.4,388.6 347.6,390.5 	"/>
	<polygon class="st8" points="211.3,397.7 202.1,392.5 197.9,402.3 195.1,392 185.2,395.9 190.4,386.7 180.7,382.6 190.9,379.7 
		187,369.9 196.2,375 200.4,365.3 203.2,375.5 213.1,371.6 207.9,380.8 217.6,385 207.4,387.9 	"/>
	<polygon class="st8" points="296.9,215 287.7,209.9 283.4,219.6 280.6,209.5 270.7,213.4 276,204.1 266.3,199.9 276.4,197 
		272.5,187.2 281.8,192.3 286,182.7 288.8,192.9 298.7,189 293.4,198.2 303.1,202.4 293,205.2 	"/>
</g>
</svg>
