<?xml version="1.0" encoding="utf-8"?>
<!-- Generator: Adobe Illustrator 22.1.0, SVG Export Plug-In . SVG Version: 6.00 Build 0)  -->
<svg version="1.1" id="Layer_1" xmlns="http://www.w3.org/2000/svg" xmlns:xlink="http://www.w3.org/1999/xlink" x="0px" y="0px"
	 viewBox="0 0 500 500" style="enable-background:new 0 0 500 500;" xml:space="preserve">
<style type="text/css">
	.st0{fill:none;stroke:#C8AB2D;stroke-width:18.4167;stroke-miterlimit:10;}
	.st1{fill:#CA9730;}
</style>
<g>
	<path class="st0" d="M115.8,380.6l-10.6,9.7c-6.9,6.3-17.7,5.9-24-1l-37-40.1c-6.3-6.9-5.9-17.7,1-24l10.6-9.7
		c6.9-6.3,17.7-5.9,24,1l37,40.1C123.1,363.5,122.7,374.3,115.8,380.6z"/>
	<path class="st0" d="M234.7,398.6V413c0,9.4-7.7,17-17,17h-54.5c-9.4,0-17-7.7-17-17v-14.4c0-9.4,7.7-17,17-17h54.5
		C227,381.6,234.7,389.3,234.7,398.6z"/>
	<path class="st0" d="M347.1,368.5l4.8,13.5c3.1,8.8-1.5,18.6-10.4,21.7L290.1,422c-8.8,3.1-18.6-1.5-21.7-10.4l-4.8-13.5
		c-3.1-8.8,1.5-18.6,10.4-21.7l51.4-18.2C334.2,355.1,344,359.7,347.1,368.5z"/>
	<path class="st0" d="M420.5,292.9l11.4,8.7c7.4,5.7,8.9,16.4,3.2,23.8L402,368.8c-5.7,7.4-16.4,8.9-23.8,3.2l-11.4-8.7
		c-7.4-5.7-8.9-16.4-3.2-23.8l33.1-43.3C402.4,288.6,413.1,287.2,420.5,292.9z"/>
	<path class="st0" d="M458,181.2l14.3,1.6c9.3,1.1,16,9.5,15,18.8l-6.1,54.2c-1.1,9.3-9.5,16-18.8,15l-14.3-1.6
		c-9.3-1.1-16-9.5-15-18.8l6.1-54.2C440.3,186.9,448.7,180.2,458,181.2z"/>
	<path class="st1" d="M94.2,366.9L94.2,366.9c-2.7,4.7-1.1,10.8,3.6,13.5l63.1,36.4c4.7,2.7,10.8,1.1,13.5-3.6l0,0
		c2.7-4.7,1.1-10.8-3.6-13.5l-63.1-36.4C103,360.6,96.9,362.2,94.2,366.9z"/>
	<path class="st1" d="M210.2,408.6L210.2,408.6c0.6,5.4,5.5,9.4,10.9,8.8l72.5-7.6c5.4-0.6,9.4-5.5,8.8-10.9v0
		c-0.6-5.4-5.5-9.4-10.9-8.8l-72.5,7.6C213.6,398.3,209.6,403.2,210.2,408.6z"/>
	<path class="st1" d="M318.6,385.8L318.6,385.8c2.4,4.9,8.4,6.9,13.2,4.5l65.3-32.3c4.9-2.4,6.9-8.4,4.5-13.2l0,0
		c-2.4-4.9-8.4-6.9-13.2-4.5L323,372.6C318.2,375,316.2,380.9,318.6,385.8z"/>
	<path class="st1" d="M416.5,319.7L416.5,319.7c4.7,2.7,10.8,1.1,13.5-3.6l36.4-63.1c2.7-4.7,1.1-10.8-3.6-13.5v0
		c-4.7-2.7-10.8-1.1-13.5,3.6l-36.4,63.1C410.2,310.9,411.8,317,416.5,319.7z"/>
	<path class="st1" d="M464.1,210L464.1,210c5.3-1,8.9-6.2,7.8-11.6l-13.7-71.6c-1-5.3-6.2-8.9-11.6-7.8v0c-5.3,1-8.9,6.2-7.8,11.6
		l13.7,71.6C453.5,207.5,458.7,211,464.1,210z"/>
	<g>
		<path class="st0" d="M52.3,289.4H38c-9.4,0-17-7.7-17-17v-54.5c0-9.4,7.7-17,17-17h14.4c9.4,0,17,7.7,17,17v54.5
			C69.3,281.8,61.7,289.4,52.3,289.4z"/>
		<path class="st1" d="M38.3,134.8L38.3,134.8c-5.4,0-9.9,4.4-9.9,9.9v72.9c0,5.4,4.4,9.9,9.9,9.9h0c5.4,0,9.9-4.4,9.9-9.9v-72.9
			C48.1,139.3,43.7,134.8,38.3,134.8z"/>
		<path class="st1" d="M41,261.2L41,261.2c-5.2,1.5-8.3,6.9-6.9,12.2l19.5,70.2c1.5,5.2,6.9,8.3,12.2,6.9h0
			c5.2-1.5,8.3-6.9,6.9-12.2l-19.5-70.2C51.7,262.9,46.3,259.8,41,261.2z"/>
	</g>
</g>
</svg>
