<svg height='100px' width='100px'  fill="#1A1A1A" xmlns="http://www.w3.org/2000/svg" xmlns:xlink="http://www.w3.org/1999/xlink" version="1.1" x="0px" y="0px" viewBox="0 0 100 100" enable-background="new 0 0 100 100" xml:space="preserve"><g><path fill-rule="evenodd" clip-rule="evenodd" d="M-80.359,49.619l-0.081,0.225c-0.388,1.088-0.234,2.817,0.456,5.15   c0.908-1.742,2.878-4.95,5.941-7.019c1.701-1.15,0.542-3.648-1.489-7.63c-1.809-3.544-4.06-7.954-3.896-12.449   c0.146-4,2.664-5.651,5.579-7.563c2.888-1.894,6.161-4.04,8.378-9.052l0.339-0.767l0.543,0.64   c0.075,0.089,7.704,8.965,17.884,10.318l5.655,1.704l-0.051,0.438c-0.011,0.081-1,8.24-4.999,20.03   c-2.52,7.429-2.088,8.224-1.302,9.668c0.242,0.445,0.524,0.965,0.783,1.706c1.519-2.768,5.258-9.216,7.414-9.805   c2.308-0.629,2.34-6.529,2.067-12.217c-0.098-2.008,0.093-3.842,0.275-5.616c0.489-4.729,0.911-8.814-4.172-14.468   C-46.631,6.684-54.476,2.5-60.553,2.5c-2.25,0-4.236,0.546-5.906,1.622l-0.16,0.104l-0.189-0.024   c-0.116-0.014-13.028-1.479-16.415,16.521c-0.034,0.13-2.357,8.753,1.188,16.022C-78.398,44.203-79.626,47.594-80.359,49.619z"></path><path fill-rule="evenodd" clip-rule="evenodd" d="M-47.078,23.248c-8.472-1.114-15.153-7.121-17.641-9.664   c-2.378,4.455-5.63,6.587-8.267,8.315c-2.861,1.876-4.753,3.117-4.868,6.302c-0.133,3.637,1.474,7.192,3,10.245   c3.648,4.278,8.95,6.731,14.554,6.731c5.362,0,10.509-2.287,14.138-6.277c2.15-7.147,3.069-12.381,3.37-14.354L-47.078,23.248z"></path><path fill-rule="evenodd" clip-rule="evenodd" d="M-37.073,44.81c-0.447,0.868-1.048,1.445-1.854,1.665   c-0.658,0.179-1.668,1.309-2.769,2.833v16.168v6.087h-5.73v-5.737h0.03v-9.463c-0.28-1.073-0.621-1.733-0.93-2.301   c-0.895-1.645-1.247-2.738,0.537-8.392c-5.453,2.456-12.46,7.367-12.46,7.367s-6.609-4.831-11.984-7.156   c0.119,0.755,0.07,1.435-0.194,2.025V65.17v0.655v5.737h-6.173V54.924c-0.647,1.121-0.985,1.92-0.993,1.939l-0.531,1.283   l-0.452-1.313c-1.118-3.247-1.397-5.568-0.853-7.093l0.082-0.229c0.438-1.209,1.059-2.954,0.516-5.939   c-5.737,2.092-9.87,7.598-9.87,14.034v38.758h12.102V72.088h6.697v-6.263h23.95v6.263h6.257v24.275h11.898V57.605   C-29.798,52.188-32.728,47.432-37.073,44.81z"></path><circle fill-rule="evenodd" clip-rule="evenodd" cx="-75.589" cy="69.109" r="1.445"></circle><circle fill-rule="evenodd" clip-rule="evenodd" cx="-44.935" cy="69.11" r="1.446"></circle><rect x="-49.345" y="78.107" fill-rule="evenodd" clip-rule="evenodd" width="0.395" height="0.77"></rect><rect x="-49.345" y="76.725" fill-rule="evenodd" clip-rule="evenodd" width="0.395" height="0.771"></rect><rect x="-49.345" y="75.349" fill-rule="evenodd" clip-rule="evenodd" width="0.395" height="0.77"></rect><rect x="-53.315" y="81.512" transform="matrix(-0.2953 -0.9554 0.9554 -0.2953 -146.9728 55.2293)" fill-rule="evenodd" clip-rule="evenodd" width="0.394" height="0.61"></rect><rect x="-52.269" y="81.191" transform="matrix(-0.2939 -0.9558 0.9558 -0.2939 -145.2718 55.6767)" fill-rule="evenodd" clip-rule="evenodd" width="0.395" height="0.61"></rect><rect x="-51.226" y="80.87" transform="matrix(-0.2946 -0.9556 0.9556 -0.2946 -143.6338 56.3259)" fill-rule="evenodd" clip-rule="evenodd" width="0.394" height="0.61"></rect><rect x="-56.459" y="82.479" transform="matrix(-0.2946 -0.9556 0.9556 -0.2946 -151.9469 53.4083)" fill-rule="evenodd" clip-rule="evenodd" width="0.394" height="0.61"></rect><rect x="-55.412" y="82.158" transform="matrix(-0.2946 -0.9556 0.9556 -0.2946 -150.2841 53.9921)" fill-rule="evenodd" clip-rule="evenodd" width="0.394" height="0.61"></rect><rect x="-54.369" y="81.837" transform="matrix(-0.2946 -0.9556 0.9556 -0.2946 -148.6273 54.5735)" fill-rule="evenodd" clip-rule="evenodd" width="0.394" height="0.61"></rect><polygon fill-rule="evenodd" clip-rule="evenodd" points="-59.71,83.639 -59.664,84.036 -59.057,83.85 -59.171,83.473  "></polygon><rect x="-58.557" y="83.125" transform="matrix(-0.2962 -0.9551 0.9551 -0.2962 -155.3297 52.397)" fill-rule="evenodd" clip-rule="evenodd" width="0.396" height="0.609"></rect><rect x="-57.513" y="82.803" transform="matrix(-0.2923 -0.9563 0.9563 -0.2923 -153.5489 52.5932)" fill-rule="evenodd" clip-rule="evenodd" width="0.394" height="0.611"></rect><rect x="-62.82" y="82.909" transform="matrix(-0.9556 -0.2945 0.2945 -0.9556 -146.735 144.1134)" fill-rule="evenodd" clip-rule="evenodd" width="0.61" height="0.394"></rect><rect x="-61.773" y="83.232" transform="matrix(-0.9556 -0.2945 0.2945 -0.9556 -144.7826 145.052)" fill-rule="evenodd" clip-rule="evenodd" width="0.61" height="0.394"></rect><polygon fill-rule="evenodd" clip-rule="evenodd" points="-60.775,83.849 -60.167,84.035 -60.12,83.637 -60.659,83.472  "></polygon><rect x="-65.965" y="81.943" transform="matrix(-0.9562 -0.2926 0.2926 -0.9562 -152.4804 141.4703)" fill-rule="evenodd" clip-rule="evenodd" width="0.611" height="0.393"></rect><rect x="-64.917" y="82.265" transform="matrix(-0.9561 -0.2931 0.2931 -0.9561 -150.5548 142.3668)" fill-rule="evenodd" clip-rule="evenodd" width="0.61" height="0.394"></rect><rect x="-63.875" y="82.586" transform="matrix(-0.9567 -0.2912 0.2912 -0.9567 -148.4876 143.4698)" fill-rule="evenodd" clip-rule="evenodd" width="0.61" height="0.393"></rect><rect x="-69.108" y="80.976" transform="matrix(-0.9558 -0.2941 0.2941 -0.9558 -158.4347 138.5222)" fill-rule="evenodd" clip-rule="evenodd" width="0.611" height="0.394"></rect><rect x="-68.061" y="81.298" transform="matrix(-0.9556 -0.2945 0.2945 -0.9556 -156.5093 139.4186)" fill-rule="evenodd" clip-rule="evenodd" width="0.61" height="0.394"></rect><rect x="-67.018" y="81.619" transform="matrix(-0.9565 -0.2916 0.2916 -0.9565 -154.3845 140.6219)" fill-rule="evenodd" clip-rule="evenodd" width="0.609" height="0.394"></rect><rect x="-70.874" y="75.341" fill-rule="evenodd" clip-rule="evenodd" width="0.394" height="0.77"></rect><rect x="-70.874" y="76.722" fill-rule="evenodd" clip-rule="evenodd" width="0.394" height="0.771"></rect><rect x="-70.874" y="78.099" fill-rule="evenodd" clip-rule="evenodd" width="0.394" height="0.771"></rect><rect x="-49.317" y="79.384" fill-rule="evenodd" clip-rule="evenodd" width="0.395" height="0.485"></rect><polygon fill-rule="evenodd" clip-rule="evenodd" points="-49.317,80.451 -49.334,80.451 -49.343,80.451 -49.35,80.452    -49.373,80.46 -49.419,80.474 -49.511,80.503 -49.396,80.879 -49.163,80.808 -49.048,80.772 -48.988,80.754 -48.96,80.745    -48.952,80.743 -48.948,80.743 -48.943,80.743 -48.923,80.743 -48.923,80.257 -49.317,80.257  "></polygon><rect x="-50.253" y="80.634" transform="matrix(-0.2976 -0.9547 0.9547 -0.2976 -142.1635 57.1546)" fill-rule="evenodd" clip-rule="evenodd" width="0.394" height="0.484"></rect><rect x="-70" y="80.71" transform="matrix(-0.9564 -0.292 0.292 -0.9564 -160.0983 137.9236)" fill-rule="evenodd" clip-rule="evenodd" width="0.485" height="0.394"></rect><polygon fill-rule="evenodd" clip-rule="evenodd" points="-70.483,80.461 -70.48,80.452 -70.48,80.446 -70.48,80.423    -70.48,80.375 -70.48,80.277 -70.874,80.277 -70.874,80.52 -70.874,80.641 -70.874,80.702 -70.874,80.732 -70.874,80.74    -70.875,80.744 -70.876,80.749 -70.883,80.769 -70.419,80.911 -70.303,80.533 -70.487,80.476  "></polygon><rect x="-70.874" y="79.404" fill-rule="evenodd" clip-rule="evenodd" width="0.394" height="0.484"></rect></g><g><path fill-rule="evenodd" clip-rule="evenodd" d="M-131.527,22.16h-9.376c-0.388,0-0.704,0.316-0.704,0.704v5.603   c0,0.389,0.316,0.705,0.704,0.705h9.376c0.388,0,0.704-0.316,0.704-0.705v-5.603C-130.823,22.476-131.139,22.16-131.527,22.16z"></path><path fill-rule="evenodd" clip-rule="evenodd" d="M-113.843,22.16h-9.375c-0.39,0-0.706,0.316-0.706,0.704v5.603   c0,0.389,0.316,0.705,0.706,0.705h9.375c0.389,0,0.705-0.316,0.705-0.705v-5.603C-113.138,22.476-113.454,22.16-113.843,22.16z"></path><g><path d="M-109.475,40.323c-2.604,2.442-5.706,4.357-9.135,5.58l0.777-0.777h-19.082l0.777,0.777    c-3.428-1.223-6.53-3.138-9.135-5.58c-7.724,0.889-13.773,7.493-13.773,15.442v40.31h30.738l0.933,0.933l0.933-0.933h30.74v-40.31    C-95.701,47.816-101.75,41.212-109.475,40.323z M-125.29,53.96c0,0.762-0.411,1.426-1.021,1.789l5.224,34.268l-6.286,6.284    l-6.283-6.284l5.223-34.268c-0.611-0.363-1.021-1.027-1.021-1.789c0-0.576,0.232-1.097,0.61-1.474l-6.861-6.86h16.668l-6.86,6.86    C-125.522,52.862-125.29,53.384-125.29,53.96z"></path><path fill-rule="evenodd" clip-rule="evenodd" d="M-127.374,2.5c-11.29,0-20.441,9.153-20.441,20.443s9.151,20.442,20.441,20.442    c11.291,0,20.443-9.152,20.443-20.442S-116.083,2.5-127.374,2.5z M-117.453,7.385c0.942,0.199,1.842,0.59,2.659,1.1    c1.627,1.039,2.9,2.566,3.652,4.288c-1.253-1.399-2.528-2.701-4.054-3.655c-0.753-0.486-1.563-0.874-2.413-1.171    c-0.854-0.281-1.744-0.505-2.682-0.549C-119.376,7.151-118.39,7.182-117.453,7.385z M-138.144,7.051    c1.676-0.886,3.496-1.483,5.35-1.857c3.72-0.72,7.579-0.515,11.17,0.482c-3.719-0.214-7.402-0.217-10.978,0.499    c-1.786,0.341-3.532,0.87-5.209,1.579c-1.663,0.73-3.297,1.596-4.721,2.798C-141.379,9.071-139.813,7.928-138.144,7.051z     M-139.955,11.094c1.818-1.078,3.82-1.838,5.876-2.321c4.129-0.94,8.467-0.719,12.455,0.451    c-4.136-0.389-8.265-0.403-12.231,0.523c-1.98,0.445-3.904,1.129-5.729,2.03c-1.809,0.923-3.565,2.015-5.072,3.447    C-143.435,13.528-141.766,12.165-139.955,11.094z M-145.623,19c1.354-1.722,3.107-3.102,4.963-4.275    c1.862-1.18,3.901-2.073,6.006-2.733c2.112-0.637,4.295-1.046,6.492-1.151c2.194-0.121,4.395,0.001,6.538,0.409    c-1.091,0.012-2.174,0.006-3.253,0.083c-1.077,0.043-2.151,0.129-3.216,0.274c-2.127,0.28-4.229,0.703-6.268,1.34    c-2.045,0.615-4.019,1.451-5.917,2.44c-0.951,0.495-1.873,1.048-2.761,1.655C-143.944,17.628-144.803,18.284-145.623,19z     M-111.802,28.467c0,1.125-0.916,2.04-2.041,2.04h-9.375c-1.125,0-2.041-0.915-2.041-2.04v-2.415    c-0.669-0.356-1.372-0.537-2.091-0.537c-0.963,0-1.731,0.318-2.137,0.531v2.42c0,1.125-0.915,2.04-2.04,2.04h-9.376    c-1.125,0-2.041-0.915-2.041-2.04v-5.603c0-1.125,0.916-2.04,2.041-2.04h9.376c1.125,0,2.04,0.915,2.04,2.04v1.732    c1.04-0.395,2.762-0.587,4.229-0.012v-1.721c0-1.125,0.916-2.04,2.041-2.04h9.375c1.125,0,2.041,0.915,2.041,2.04V28.467z     M-114.697,12.449c-0.701-0.593-1.479-1.09-2.303-1.511c-0.83-0.404-1.702-0.76-2.642-0.965c1.942-0.151,3.907,0.655,5.423,1.899    c1.519,1.268,2.602,3.012,3.077,4.877C-112.166,15.122-113.272,13.619-114.697,12.449z"></path></g></g><g><g><path fill-rule="evenodd" clip-rule="evenodd" d="M-175.838,26.927h-2.793c-0.151,0-0.31,0.012-0.499,0.04l-0.074,0.006    l-6.1,0.041l0.369-0.779c0.481-1.011,0.305-3.744,0.024-6.019c-0.736,2.893-2.062,6.253-2.142,6.457l-0.137,0.341h-25.846    c0.121,1.688,0.713,6.954,3.425,11.813c3.483,4.867,9.169,8.049,15.609,8.049c6.366,0,11.992-3.112,15.485-7.883    C-177.886,37.24-176.88,33.688-175.838,26.927z"></path></g><path fill-rule="evenodd" clip-rule="evenodd" d="M-194,72.057l14.77-26.354c-5.335,4.084-14.77,9.353-14.77,9.353   s-9.465-5.285-14.795-9.372L-194,72.057z"></path><path fill-rule="evenodd" clip-rule="evenodd" d="M-177.108,44.014l-16.055,28.647c0.477,0.294,0.797,0.815,0.797,1.414   c0,0.922-0.749,1.669-1.673,1.669s-1.672-0.747-1.672-1.669c0-0.622,0.347-1.159,0.854-1.444l-16.051-28.615   c-7.205,0.879-12.839,7.053-12.839,14.488v37.859h9.196c0.193-1.485,0.375-2.967,0.484-4.455c0.145-1.535,0.245-3.072,0.283-4.608   c0.07-3.067,0.008-6.148-0.543-9.135c-0.123-0.744-0.323-1.474-0.48-2.256c-0.154-0.771-0.286-1.546-0.376-2.325   c-0.175-1.558-0.267-3.123-0.221-4.684c0.069-3.119,0.452-6.229,1.286-9.219c-0.216,1.534-0.379,3.068-0.448,4.607   c-0.097,1.536-0.129,3.074-0.072,4.605c0.066,1.531,0.165,3.059,0.392,4.566c0.111,0.754,0.234,1.506,0.396,2.249   c0.153,0.731,0.37,1.494,0.507,2.274c0.55,3.107,0.582,6.256,0.328,9.357c-0.254,3.049-0.729,6.076-1.518,9.021h43.128   c-0.789-2.945-1.263-5.973-1.517-9.021c-0.254-3.102-0.222-6.25,0.327-9.357c0.138-0.78,0.354-1.543,0.508-2.274   c0.161-0.743,0.283-1.495,0.396-2.249c0.227-1.508,0.325-3.035,0.391-4.566c0.057-1.531,0.025-3.069-0.072-4.605   c-0.069-1.539-0.232-3.073-0.447-4.607c0.834,2.989,1.216,6.1,1.286,9.219c0.045,1.561-0.046,3.126-0.221,4.684   c-0.091,0.779-0.222,1.555-0.377,2.325c-0.156,0.782-0.357,1.512-0.479,2.256c-0.552,2.986-0.614,6.067-0.543,9.135   c0.038,1.536,0.138,3.073,0.283,4.608c0.109,1.488,0.291,2.97,0.484,4.455h7.132V58.504   C-164.254,51.064-169.895,44.887-177.108,44.014z"></path><path d="M-190.53,5.857c0,0-36.235-8.306-23.076,34.967h4.59c-0.914-1.33-1.638-2.722-2.224-4.095   c-0.131,0.063-0.273,0.104-0.428,0.104c-0.552,0-1-0.448-1-1c0-0.451,0.305-0.818,0.716-0.942   c-1.567-4.537-1.654-8.418-1.654-8.418h26.05c0,0,2.839-7.162,2.569-9.536c-0.27-2.375,1.644,7.209,0.541,9.53l5.237-0.036   c0.186-0.027,0.375-0.045,0.577-0.045h3.423c-0.549,3.652-1.088,6.407-1.575,8.488c0.452,0.096,0.799,0.479,0.799,0.959   c0,0.552-0.448,1-1,1c-0.099,0-0.188-0.03-0.277-0.056c-0.865,3.181-1.468,4.047-1.468,4.047h5.236   C-173.494,40.824-163.759,0.218-190.53,5.857z"></path></g><path fill-rule="evenodd" clip-rule="evenodd" d="M-257.78,3.068c-11.325,0-20.505,9.181-20.505,20.506  c0,11.325,9.181,20.505,20.505,20.505s20.505-9.181,20.505-20.505C-237.274,12.249-246.455,3.068-257.78,3.068z M-255.1,34.519  c-1.176,0-2.184-0.679-2.68-1.661c-0.497,0.981-1.504,1.661-2.68,1.661c-6.971,0-10.437-3.909-10.437-3.909s4.625,3.057,8.175-1.096  l0.004,0.009c0.553-0.629,1.354-1.035,2.257-1.035c1.176,0,2.183,0.679,2.68,1.661c0.497-0.981,1.504-1.661,2.68-1.661  c0.904,0,1.705,0.405,2.258,1.035l0.004-0.009c3.551,4.152,8.176,1.096,8.176,1.096S-248.129,34.519-255.1,34.519z"></path><path d="M-239.825,41.008c-1.712,1.604-3.64,2.98-5.73,4.085c-0.082-0.164-0.18-0.318-0.31-0.449  c-0.298-0.3-0.744-0.472-1.224-0.472c-0.28,0-0.549,0.058-0.725,0.146l-7.538,2.634c-0.567-0.685-1.422-1.097-2.316-1.097  c-0.931,0-1.806,0.436-2.369,1.159l-7.613-2.655c-0.724-0.335-1.542-0.222-2.046,0.287c-0.129,0.131-0.227,0.284-0.308,0.448  c-2.091-1.105-4.019-2.481-5.731-4.085c-7.746,0.892-13.814,7.516-13.814,15.49v40.434h63.539V56.498  C-226.01,48.524-232.079,41.9-239.825,41.008z M-245.881,51.753c-0.005,0.784-0.502,1.33-1.211,1.33  c-0.216,0-0.437-0.052-0.656-0.156l-7.791-2.73c-0.452,0.73-1.253,1.192-2.129,1.192c-0.913,0-1.728-0.488-2.169-1.255l-8.029,2.815  c-0.166,0.083-0.386,0.135-0.602,0.135c-0.708,0-1.206-0.546-1.211-1.328l-0.033-5.756c-0.002-0.407,0.126-0.754,0.372-1.002  c0.361-0.363,0.936-0.437,1.479-0.184l8.022,2.8c0.441-0.77,1.257-1.257,2.17-1.257c0.877,0,1.678,0.463,2.13,1.192l7.889-2.756  c0.414-0.2,1.068-0.157,1.429,0.206c0.245,0.249,0.374,0.596,0.372,1.003L-245.881,51.753z"></path><g><path fill-rule="evenodd" clip-rule="evenodd" d="M-340.623,42.84l2.324,7.98l11.198-3.262l-0.053-0.015l0.239-0.081l-4.376-1.476   c-2.065-0.578-4.389-1.318-6.538-2.205L-340.623,42.84z"></path><path fill-rule="evenodd" clip-rule="evenodd" d="M-324.134,47.543l-0.055,0.016l11.2,3.263l2.324-7.981l-2.027,0.684   c-3.346,1.517-7.202,2.636-9.736,3.284l-1.943,0.655L-324.134,47.543z"></path><path fill-rule="evenodd" clip-rule="evenodd" d="M-307.689,40.44c-0.52,0.487-1.144,0.951-1.833,1.394l-2.911,9.999l-13.211-3.848   l-13.209,3.848l-2.918-10.022c-0.694-0.435-1.316-0.891-1.827-1.37c-7.746,0.892-13.814,7.515-13.814,15.49v40.434h63.539V55.93   C-293.874,47.955-299.943,41.332-307.689,40.44z"></path><g><path fill-rule="evenodd" clip-rule="evenodd" d="M-325.808,51.832"></path><g><path fill="#1A1A1A" d="M-325.808,52.832c1.29,0,1.29-2,0-2C-327.097,50.832-327.097,52.832-325.808,52.832L-325.808,52.832z"></path></g></g><g><path fill-rule="evenodd" clip-rule="evenodd" d="M-325.808,64.867"></path><g><path fill="#1A1A1A" d="M-325.808,65.867c1.29,0,1.29-2,0-2C-327.097,63.867-327.097,65.867-325.808,65.867L-325.808,65.867z"></path></g></g><g><path fill-rule="evenodd" clip-rule="evenodd" d="M-325.644,77.904"></path><g><path fill="#1A1A1A" d="M-325.644,78.904c1.29,0,1.29-2,0-2C-326.933,76.904-326.933,78.904-325.644,78.904L-325.644,78.904z"></path></g></g><g><path fill-rule="evenodd" clip-rule="evenodd" d="M-325.808,90.939"></path><g><path fill="#1A1A1A" d="M-325.808,91.939c1.29,0,1.29-2,0-2C-327.097,89.939-327.097,91.939-325.808,91.939L-325.808,91.939z"></path></g></g><g><path fill-rule="evenodd" clip-rule="evenodd" d="M-337.129,17.571l0.516,0.543l-2.908,2.938c1.729,0.123,6.007,0.151,8.744-2.189    l1.021-0.873l-1.042,3.152c1.05-0.015,4.09-0.576,8.636-5.732l0.656-0.744v3.433c2.166-0.618,6.552-2.21,6.952-3.984l0.74,0.108    c-0.002,0.024-0.131,2.276,1.483,4.625l1.42-2.902l0.211,1.104c0.268,1.403,1.235,4.874,2.675,5.447v-3.325l2.746,6.142    c0.086-0.759,0.139-1.527,0.139-2.309c0-11.325-9.181-20.505-20.505-20.505c-10.527,0-19.19,7.937-20.36,18.15    C-343.298,20.217-339.066,19.297-337.129,17.571z"></path><path fill-rule="evenodd" clip-rule="evenodd" d="M-305.865,25.837l-1.408-3.15v0.649l-0.384-0.009    c-1.97-0.045-3.081-3.319-3.539-5.088l-0.992,2.027l-0.369-0.466c-1.291-1.629-1.759-3.261-1.923-4.346    c-1.837,2.036-6.67,3.334-7.306,3.499l-0.469,0.121v-2.442c-5.651,6.069-9.002,5.245-9.146,5.207l-0.381-0.104l0.525-1.59    c-3.74,2.351-8.903,1.61-9.14,1.575l-0.73-0.109l1.948-1.968c-2.226,0.94-4.976,1.489-6.891,1.785    c-0.04,0.523-0.08,1.046-0.08,1.58c0,11.325,9.181,20.505,20.506,20.505c10.445,0,19.049-7.817,20.324-17.917L-305.865,25.837z"></path></g></g><path fill-rule="evenodd" clip-rule="evenodd" d="M66.202,22.784c-3.23-5.594-9.273-9.361-16.199-9.361  c-6.926,0-12.967,3.767-16.199,9.361H66.202z"></path><path fill-rule="evenodd" clip-rule="evenodd" d="M31.398,30.217c-0.063,0.627-0.096,1.263-0.096,1.907  c0,10.328,8.373,18.702,18.701,18.702c10.328,0,18.701-8.374,18.701-18.702c0-0.644-0.031-1.28-0.096-1.907H31.398z"></path><path d="M82.837,19.847c-0.465-1.909-3.404-1.1-2.939,0.809c0.072,0.297,0.096,0.64,0.064,1.288  c-0.061,1.195-0.762,2.138-1.754,2.747c-1.652,1.014-3.768,0.856-5.648,0.855c-1.131,0-2.26-0.001-3.391-0.001  C68.12,12.792,54.345,1.29,54.345,1.29c-0.662-0.552-1.479-0.354-1.814,0.44c0,0-1.113,2.643-2.982,2.642  c-1.871-0.001-2.984-2.644-2.984-2.644c-0.334-0.794-1.148-0.993-1.811-0.441c0,0-13.824,11.519-14.852,24.29  c-1.502-0.015-3.004-0.035-4.504-0.063c-2.023-0.039-4.484-0.647-5.174-2.791c-0.242-0.754-0.178-1.739-0.092-2.091  c0.467-1.909-2.471-2.72-2.938-0.811c-1.4,5.724,3.891,8.752,8.914,8.754c3.828,0.001,7.656,0.003,11.482,0.004  c11.846,0.005,23.691,0.01,35.535,0.015c2.891,0.001,5.855-0.292,8.057-2.365C82.837,24.669,83.364,22.008,82.837,19.847z"></path><polygon points="68.535,45.996 68.535,57.241 53.902,57.241 "></polygon><g><path fill-rule="evenodd" clip-rule="evenodd" d="M69.739,48.853v9.439H53.178c-1.883,1.362-3.174,2.273-3.174,2.273   s-1.292-0.911-3.175-2.273H29.722v-9.229c-5.094,2.169-8.691,7.227-8.691,13.089v36.875h57.947V62.151   C78.978,56.083,75.12,50.884,69.739,48.853z M70.55,78.181l-7.617,4.898l-0.021-0.033l-0.021,0.033l-7.617-4.898v-9.77h1.053v9.195   l6.586,4.232l6.586-4.232v-9.195h1.053V78.181z"></path></g><polygon points="30.901,45.996 30.901,57.241 45.972,57.241 "></polygon></svg>